<?xml version="1.0" encoding="utf-8"?>
<!-- Generator: Adobe Illustrator 25.4.1, SVG Export Plug-In . SVG Version: 6.00 Build 0)  -->
<svg version="1.1" id="Capa_1" xmlns="http://www.w3.org/2000/svg" xmlns:xlink="http://www.w3.org/1999/xlink" x="0px" y="0px"
	 viewBox="0 0 155.91 155.91" style="enable-background:new 0 0 155.91 155.91;" xml:space="preserve">
<g>
	<path d="M140.29,100.25c0.92,1.51,1.59,2.84,2.48,3.99c0.88,1.14,0.74,2.07,0.06,3.21c-2.2,3.7-4.38,7.42-6.44,11.19
		c-0.75,1.38-1.67,1.86-3.2,1.68c-1.3-0.16-2.64-0.03-4.25-0.03c0.33,1.63,0.53,3.16,0.97,4.61c0.39,1.28,0.02,2.03-0.97,2.84
		c-3.29,2.67-6.56,5.36-9.71,8.19c-1.36,1.22-2.56,1.48-4.16,0.62c-1.08-0.58-2.27-0.93-3.66-1.49c-0.28,1.75-0.64,3.18-0.71,4.63
		c-0.07,1.39-0.61,2.04-1.95,2.5c-4.08,1.37-8.12,2.87-12.13,4.43c-1.41,0.55-2.44,0.54-3.49-0.67c-0.86-0.99-1.94-1.8-3.24-2.96
		c-0.75,1.39-1.53,2.53-2.02,3.79c-0.6,1.53-1.52,2.07-3.19,2.02c-4.16-0.12-8.32-0.13-12.48,0.01c-1.73,0.06-2.78-0.4-3.39-2.08
		c-0.42-1.16-1.14-2.21-1.82-3.51c-0.64,0.49-1.2,0.74-1.51,1.18c-2.21,3.12-4.85,3.06-8.05,1.55c-2.94-1.39-6.06-2.44-9.17-3.41
		c-1.59-0.5-2.35-1.22-2.38-2.91c-0.02-1.3-0.36-2.59-0.6-4.19c-1.71,0.67-3.11,1.38-4.58,1.72c-0.85,0.2-2.09,0.11-2.73-0.39
		c-3.61-2.85-7.14-5.82-10.58-8.88c-0.54-0.48-0.74-1.63-0.68-2.43c0.11-1.45,0.54-2.87,0.93-4.74c-1.69,0.07-3.12,0.06-4.54,0.22
		c-1.42,0.16-2.3-0.24-3.02-1.59c-2.01-3.72-4.11-7.4-6.34-10.99c-0.93-1.5-0.98-2.64,0.11-4c0.77-0.96,1.34-2.08,2.16-3.4
		c-1.71-0.58-3.22-0.93-4.57-1.61c-0.79-0.39-1.73-1.22-1.89-2c-0.92-4.43-1.58-8.91-2.41-13.36c-0.23-1.25,0.02-2.09,1.13-2.81
		c1.22-0.79,2.3-1.79,3.67-2.87c-1.46-1.13-2.64-2.13-3.9-3c-0.97-0.67-1.28-1.35-1.03-2.59c0.89-4.51,1.56-9.07,2.45-13.58
		c0.14-0.69,0.87-1.48,1.54-1.79c1.39-0.65,2.92-1.02,4.73-1.62c-0.82-1.36-1.42-2.61-2.25-3.67c-1.01-1.29-1.02-2.36-0.15-3.78
		c2.26-3.66,4.4-7.4,6.47-11.18c0.67-1.23,1.44-1.7,2.8-1.53c1.38,0.17,2.77,0.18,4.54,0.28c-0.38-1.88-0.8-3.42-0.95-5
		c-0.07-0.75,0.11-1.83,0.61-2.27c3.62-3.2,7.32-6.29,11.07-9.34c0.44-0.36,1.37-0.4,1.95-0.22c1.54,0.48,3.01,1.17,4.8,1.9
		c0.3-1.9,0.46-3.58,0.87-5.2c0.16-0.65,0.73-1.47,1.32-1.69c4.5-1.73,9.03-3.38,13.6-4.93c0.58-0.2,1.53,0.16,2.08,0.56
		c1.23,0.92,2.32,2.04,3.71,3.29c0.79-1.48,1.56-2.72,2.14-4.05c0.58-1.34,1.41-1.85,2.91-1.81c4.31,0.11,8.62,0.1,12.93,0.01
		c1.48-0.03,2.34,0.4,2.92,1.78c0.53,1.27,1.3,2.44,2.09,3.89c1.27-1.13,2.42-1.95,3.32-2.99c1.07-1.24,2.14-1.21,3.55-0.67
		c3.88,1.49,7.78,2.93,11.72,4.24c1.63,0.54,2.47,1.34,2.44,3.15c-0.02,1.22,0.35,2.46,0.6,3.98c1.62-0.62,3.08-1.09,4.46-1.74
		c1.15-0.55,1.99-0.42,2.97,0.43c3.42,2.97,6.96,5.81,10.35,8.81c0.56,0.49,0.86,1.6,0.8,2.38c-0.11,1.52-0.55,3.01-0.89,4.7
		c1.56,0,2.88,0.12,4.18-0.03c1.67-0.19,2.69,0.29,3.52,1.87c1.93,3.68,4.02,7.28,6.21,10.82c0.89,1.43,0.86,2.51-0.15,3.79
		c-0.76,0.98-1.33,2.11-2.17,3.49c1.75,0.59,3.32,0.97,4.74,1.65c0.73,0.35,1.56,1.18,1.71,1.93c0.89,4.36,1.56,8.76,2.38,13.14
		c0.27,1.41-0.02,2.39-1.28,3.19c-1.16,0.74-2.18,1.69-3.48,2.73c1.51,1.18,2.87,2.08,4.02,3.2c0.51,0.5,0.94,1.48,0.84,2.15
		c-0.7,4.62-1.49,9.23-2.39,13.81c-0.14,0.7-0.86,1.52-1.53,1.83C143.62,99.29,142.04,99.68,140.29,100.25z M27.81,77.95
		c0.07,27.95,22.55,50.29,50.57,50.23c27.43-0.05,49.79-22.6,49.87-50.3c0.08-27.54-22.58-50.12-50.26-50.07
		C50.24,27.86,27.75,50.34,27.81,77.95z"/>
	<path d="M77.96,33.47c24.44-0.07,44.56,19.86,44.6,44.17c0.04,24.84-19.7,44.78-44.36,44.81c-24.77,0.04-44.68-19.76-44.72-44.47
		C33.43,53.47,53.35,33.53,77.96,33.47z M78.31,64.75c-7.38-0.15-13.52,5.71-13.62,12.99c-0.09,7.25,5.72,13.31,12.93,13.48
		c7.48,0.17,13.6-5.67,13.71-13.11C91.43,70.92,85.57,64.9,78.31,64.75z M51.22,106.27c5.23-4.27,8.34-9.08,9.2-15.23
		c-4.4-1.82-13.15,0.05-17.45,3.92C45.66,98.65,48.38,102.37,51.22,106.27z M113.27,94.68c-5.82-3.55-11.32-5.18-17.46-4.01
		c0,5.17,3.94,11.97,9.09,15.42C107.61,102.39,110.34,98.67,113.27,94.68z M59.62,43.66c1.43,5.85,7.34,12.36,11.88,13.39
		c2.82-5.5,3.25-11.19,1.45-17.72C68.32,40.83,63.95,42.25,59.62,43.66z M96.47,44.21c-3.96-2.3-8.08-3.63-12.42-4.24
		c-0.44-0.06-1.4,0.8-1.46,1.31c-0.29,2.56-0.6,5.16-0.43,7.72c0.2,2.92,0.88,5.81,2.72,8.36C90.49,54.4,94.26,50.09,96.47,44.21z
		 M60.47,65.23c-0.87-6.43-4.04-11.21-8.81-15.29c-3.65,3.41-6.46,7.12-8.43,11.61C48.56,64.84,54.03,66.4,60.47,65.23z
		 M84.75,98.57c-3,5.48-3.32,10.96-2.07,16.61c0.08,0.37,0.86,0.92,1.22,0.86c4.38-0.72,8.6-1.92,12.57-4.33
		C94.17,105.89,90.54,101.47,84.75,98.57z M104.76,49.64c-5.16,4.38-8.33,9.15-9.13,15.34c4.86,1.6,12.03,0.1,17.51-3.84
		C110.39,57.37,107.64,53.6,104.76,49.64z M71.25,98.58c-5.74,2.93-9.47,7.29-11.89,13.74c4.37,1.31,8.43,2.56,12.53,3.68
		c0.4,0.11,1.24-0.52,1.52-1.01c0.34-0.61,0.35-1.42,0.43-2.16C74.4,107.89,73.91,103.15,71.25,98.58z M40.4,70.86
		c-1.25,3.87-1.16,11.39,0.17,14.24c6.06-0.45,11.39-2.5,15.78-7.18C51.86,73.37,46.58,71.27,40.4,70.86z M99.81,78.19
		c4.47,4.32,9.7,6.71,16.07,6.83c0.86-4.89,0.89-9.48-0.03-14.05C109.46,71.05,102.83,74.03,99.81,78.19z M78.12,93.39
		c-1.73-0.05-3.16,1.26-3.24,2.97c-0.08,1.78,1.38,3.3,3.15,3.29c1.72-0.01,3.09-1.37,3.11-3.09
		C81.17,94.85,79.82,93.44,78.12,93.39z M98.59,83.44c-0.01-1.79-1.29-3.08-3.06-3.09c-1.74-0.01-3.17,1.33-3.21,3.01
		c-0.05,1.7,1.55,3.31,3.24,3.26C97.24,86.58,98.6,85.15,98.59,83.44z M92.76,62.76c-0.01-1.67-1.43-3.13-3.08-3.16
		c-1.7-0.03-3.27,1.58-3.2,3.28c0.07,1.72,1.46,3,3.21,2.97C91.44,65.83,92.76,64.5,92.76,62.76z M60.34,80.36
		c-1.72,0-3.18,1.39-3.19,3.03c-0.01,1.69,1.63,3.29,3.29,3.24c1.66-0.06,2.99-1.49,2.98-3.23C63.41,81.61,62.15,80.37,60.34,80.36z
		 M69.38,62.74c-0.03-1.6-1.56-3.13-3.14-3.14c-1.74-0.01-3.19,1.55-3.12,3.33c0.08,1.75,1.43,3,3.21,2.94
		C68.05,65.82,69.41,64.43,69.38,62.74z"/>
	<path d="M77.97,68.87c5.06,0,9.15,3.97,9.21,8.95c0.06,5.06-4.06,9.27-9.12,9.31c-5.04,0.04-9.2-4.13-9.21-9.22
		C68.84,72.97,72.98,68.87,77.97,68.87z"/>
</g>
</svg>
