<?xml version="1.0" encoding="utf-8"?>
<!-- Generator: Adobe Illustrator 25.4.1, SVG Export Plug-In . SVG Version: 6.00 Build 0)  -->
<svg version="1.1" id="Capa_1" xmlns="http://www.w3.org/2000/svg" xmlns:xlink="http://www.w3.org/1999/xlink" x="0px" y="0px"
	 viewBox="0 0 170.08 155.91" style="enable-background:new 0 0 170.08 155.91;" xml:space="preserve">
<g>
	<path d="M5.88,15.17c0.59-1.35,0.99-2.84,1.81-4.03c1.88-2.72,4.6-4.03,7.93-4.03c11.08,0,22.17-0.03,33.25,0.01
		c4.88,0.02,8.42,2.86,9.59,7.6c0.76,3.1,1.55,6.2,2.14,9.33c0.3,1.59,0.86,2.12,2.58,2.12c29.64-0.07,59.28-0.05,88.92-0.05
		c0.52,0,1.03-0.01,1.55,0.01c7.41,0.3,11.81,5.87,10.23,13.1c-3.9,17.85-7.87,35.68-11.81,53.52c-0.49,2.21-0.97,4.42-1.45,6.64
		c-1.79,8.16-7.66,13.1-16,13.12c-24.02,0.06-48.04,0.06-72.06,0c-8.24-0.02-14.1-4.84-15.88-12.85
		C41.4,75.88,36.19,52.1,30.91,28.33c-0.55-2.48,0.09-2.21-2.72-2.22c-4.07-0.02-8.14,0.03-12.22-0.01
		c-5.13-0.06-8.26-2.43-9.81-7.31c-0.06-0.19-0.19-0.35-0.28-0.53C5.88,17.23,5.88,16.2,5.88,15.17z M80.71,94.42
		c-0.03,2.37,1.12,3.96,2.93,4.46c1.93,0.53,3.75-0.41,4.87-2.6c9.06-17.8,18.11-35.6,27.16-53.4c1.24-2.44,0.6-4.78-1.51-5.86
		c-2.09-1.07-4.4-0.19-5.63,2.21c-9.06,17.8-18.11,35.6-27.15,53.41C81.04,93.32,80.84,94.07,80.71,94.42z M117.12,94.77
		c7.88,0.02,14.35-6.42,14.39-14.32c0.04-7.89-6.62-14.57-14.43-14.46c-7.88,0.11-14.36,6.63-14.34,14.43
		C102.76,88.28,109.25,94.76,117.12,94.77z M94.41,55.15c-0.03-7.9-6.47-14.33-14.36-14.33c-7.85,0-14.35,6.46-14.41,14.33
		c-0.07,7.81,6.66,14.52,14.48,14.44C88,69.51,94.43,63.02,94.41,55.15z"/>
	<path d="M90.99,134.48c-0.15,8.06-6.78,14.51-14.75,14.34c-7.95-0.17-14.48-6.85-14.32-14.65c0.16-8.03,6.84-14.58,14.71-14.43
		C84.67,119.89,91.14,126.52,90.99,134.48z"/>
	<path d="M135.24,134.33c-0.04,8.03-6.62,14.55-14.61,14.49c-7.92-0.07-14.43-6.59-14.47-14.51c-0.04-7.9,6.64-14.59,14.57-14.58
		C128.71,119.74,135.28,126.35,135.24,134.33z"/>
	<path d="M123.47,80.4c0,3.54-2.84,6.37-6.37,6.34c-3.52-0.02-6.37-2.92-6.33-6.42c0.04-3.42,2.91-6.27,6.33-6.31
		C120.57,73.99,123.47,76.9,123.47,80.4z"/>
	<path d="M86.37,55.11c0.03,3.54-2.78,6.42-6.29,6.44c-3.47,0.02-6.42-2.9-6.42-6.37c0-3.42,2.83-6.28,6.27-6.33
		C83.49,48.8,86.34,51.57,86.37,55.11z"/>
</g>
</svg>
