<?xml version="1.0" encoding="utf-8"?>
<!-- Generator: Adobe Illustrator 23.0.5, SVG Export Plug-In . SVG Version: 6.00 Build 0)  -->
<svg version="1.1" id="Capa_1" xmlns="http://www.w3.org/2000/svg" xmlns:xlink="http://www.w3.org/1999/xlink" x="0px" y="0px"
	 viewBox="0 0 100 100" style="enable-background:new 0 0 100 100;" xml:space="preserve">
<style type="text/css">
	.st0{fill:#FFFFFF;}
</style>
<g>
	<path class="st0" d="M50,0.8c6.74,0,13.48,0,20.22,0c14.11,0,25.61,9.35,28.42,23.16c0.36,1.78,0.53,3.64,0.53,5.46
		c0.04,13.74,0.04,27.48,0.02,41.22c-0.02,14.4-10.71,26.51-25.01,28.33c-1.26,0.16-2.54,0.22-3.81,0.22
		c-13.52,0.02-27.03,0.01-40.55,0.01c-14.77,0-26.56-10.14-28.76-24.77c-0.2-1.33-0.26-2.69-0.26-4.03
		C0.79,56.85,0.79,43.3,0.79,29.74c0-14.71,10.29-26.61,24.85-28.69c1.29-0.19,2.61-0.24,3.92-0.24C36.38,0.79,43.19,0.8,50,0.8z
		 M49.88,90.37C49.88,90.37,49.88,90.37,49.88,90.37c6.89,0.01,13.78,0.03,20.67,0c10.83-0.05,19.69-8.65,19.78-19.47
		c0.12-13.89,0.12-27.79,0-41.68c-0.1-10.88-8.9-19.55-19.66-19.58c-13.71-0.04-27.42-0.04-41.12,0
		C18.41,9.68,9.67,18.42,9.63,29.55c-0.04,13.71-0.02,27.42,0,41.12c0,2.8,0.54,5.53,1.78,8.05c3.68,7.45,9.7,11.44,18.02,11.62
		C36.25,90.49,43.07,90.37,49.88,90.37z"/>
	<path class="st0" d="M50.05,24.77c14.08,0.03,25.23,11.28,25.19,25.42c-0.04,13.95-11.37,25.1-25.45,25.05
		c-13.85-0.04-25.04-11.35-25.02-25.26C24.79,35.93,36.01,24.75,50.05,24.77z M33.61,49.98C33.6,59.02,40.9,66.37,49.9,66.39
		c9.07,0.02,16.47-7.25,16.49-16.21c0.02-9.21-7.22-16.56-16.35-16.57C40.94,33.6,33.62,40.89,33.61,49.98z"/>
	<path class="st0" d="M76.28,29.59c-3.39-0.02-5.9-2.67-5.86-6.17c0.04-3.02,2.77-5.6,5.89-5.57c3.37,0.03,5.89,2.7,5.85,6.18
		C82.13,27.04,79.4,29.62,76.28,29.59z"/>
</g>
</svg>
