<?xml version="1.0" encoding="utf-8"?>
<!-- Generator: Adobe Illustrator 23.0.5, SVG Export Plug-In . SVG Version: 6.00 Build 0)  -->
<svg version="1.1" id="Capa_1" xmlns="http://www.w3.org/2000/svg" xmlns:xlink="http://www.w3.org/1999/xlink" x="0px" y="0px"
	 viewBox="0 0 100 100" style="enable-background:new 0 0 100 100;" xml:space="preserve">
<style type="text/css">
	.st0{fill:#FFFFFF;}
</style>
<g>
	<path class="st0" d="M-0.07,100c0.91-2.71,1.73-5.16,2.56-7.6c1.92-5.68,3.83-11.37,5.8-17.04c0.34-0.97,0.25-1.69-0.25-2.59
		C-8.4,43.68,8.59,7.12,41.42,0.9c25.62-4.86,50.41,10.43,56.9,35.67c4.62,17.98,0.09,33.97-13.14,47.01
		c-15.24,15.03-37.85,18.19-56.98,8.48c-0.86-0.44-1.58-0.48-2.49-0.19C17.69,94.46,9.67,97,1.64,99.55C1.18,99.7,0.7,99.8-0.07,100
		z M12.1,88.16c5.12-1.62,9.95-3.14,14.76-4.7c0.8-0.26,1.42-0.24,2.19,0.22c11.9,7.06,24.38,8.22,37.25,3.17
		c18.49-7.26,29.25-27.24,25.12-46.22C86.58,18.37,65.5,4.23,43.09,8.45C14.37,13.86-0.34,46.64,16.52,71.72
		c0.59,0.88,0.66,1.57,0.32,2.54C15.24,78.77,13.74,83.32,12.1,88.16z"/>
	<path class="st0" d="M26.84,37.78c0.04-3.8,1.42-7.02,4.13-9.63c1.74-1.69,4.01-1.89,6.26-1.69c0.61,0.05,1.37,0.86,1.66,1.5
		c1.48,3.26,2.86,6.56,4.18,9.89c0.21,0.53,0.15,1.37-0.14,1.85c-0.82,1.34-1.73,2.64-2.79,3.8c-0.93,1.02-1.11,1.85-0.36,3.08
		c3.95,6.45,9.38,11.12,16.42,13.91c1.07,0.42,1.88,0.24,2.59-0.65c1.19-1.49,2.45-2.93,3.6-4.45c0.64-0.85,1.41-1.14,2.3-0.73
		c3.47,1.58,6.92,3.19,10.32,4.92c0.45,0.23,0.73,1.25,0.72,1.9c-0.08,5.41-3.04,8.26-8.75,9.85c-2.55,0.71-5.02,0.21-7.55-0.45
		c-11.7-3.06-20.49-10-27.21-19.88c-2.24-3.29-4.36-6.6-5.09-10.6C26.97,39.55,26.93,38.66,26.84,37.78z"/>
</g>
</svg>
