<?xml version="1.0" encoding="utf-8"?>
<!-- Generator: Adobe Illustrator 23.0.5, SVG Export Plug-In . SVG Version: 6.00 Build 0)  -->
<svg version="1.1" id="Capa_1" xmlns="http://www.w3.org/2000/svg" xmlns:xlink="http://www.w3.org/1999/xlink" x="0px" y="0px"
	 viewBox="0 0 100 100" style="enable-background:new 0 0 100 100;" xml:space="preserve">
<style type="text/css">
	.st0{fill:#F2F2F2;}
</style>
<g>
	<g>
		<g>
			<path class="st0" d="M60.11,16.27c9.26,0,13.36,4.16,13.36,12.74v3.6c0,7.21-2.86,11.44-9.01,12.68l10.38,12.87
				c0.5,0.62,0.19,1.62-0.81,1.62H65.7c-0.99,0-1.3-0.25-1.74-0.81l-9.88-12.62h-19.7v12.06c0,0.93-0.44,1.37-1.37,1.37h-6.71
				c-0.93,0-1.37-0.44-1.37-1.37V18.13c0-1.24,0.62-1.86,1.86-1.86H60.11z M58.18,38.15c4.23,0,5.78-1.49,5.78-5.22v-2.61
				c0-3.79-1.62-5.35-5.78-5.35h-23c-0.56,0-0.81,0.19-0.81,0.68v12.49H58.18z"/>
		</g>
		<path class="st0" d="M50,5.25c18.75,0,34,15.25,34,34s-15.25,34-34,34S16,58,16,39.25S31.25,5.25,50,5.25 M50,3.25
			c-19.88,0-36,16.12-36,36s16.12,36,36,36s36-16.12,36-36S69.88,3.25,50,3.25L50,3.25z"/>
	</g>
	<g>
		<path class="st0" d="M7.37,80.75c1.14,0,1.57,0.27,2.07,1.74l3.97,10.97c0.06,0.14,0.15,0.2,0.27,0.2h0.23
			c0.14,0,0.23-0.07,0.27-0.2l3.95-10.97c0.48-1.46,0.89-1.74,2.05-1.74h2.15c1.34,0,1.7,0.59,1.7,2.38v13.12
			c0,0.34-0.16,0.5-0.45,0.5h-2.03c-0.27,0-0.43-0.16-0.43-0.5V84.32c0-0.16-0.04-0.23-0.14-0.23h-0.17c-0.15,0-0.23,0.05-0.27,0.18
			l-3.74,10.24c-0.58,1.72-1.22,2.24-2.48,2.24h-1.1c-1.26,0-1.88-0.52-2.48-2.24L6.99,84.27c-0.06-0.14-0.12-0.18-0.25-0.18H6.56
			c-0.12,0-0.18,0.07-0.18,0.23v11.93c0,0.34-0.13,0.5-0.43,0.5H3.93c-0.29,0-0.43-0.16-0.43-0.5V83.13c0-1.81,0.35-2.38,1.68-2.38
			H7.37z"/>
		<path class="st0" d="M35.21,80.75c1.01,0,1.59,0.34,2.23,1.74l6.41,13.74c0.14,0.32,0.08,0.52-0.23,0.52h-2.46
			c-0.25,0-0.37-0.07-0.45-0.27l-1.28-2.79h-9.28l-1.26,2.79c-0.1,0.2-0.19,0.27-0.45,0.27h-2.54c-0.31,0-0.37-0.21-0.23-0.52
			l6.35-13.74c0.62-1.39,1.22-1.74,2.03-1.74H35.21z M38.06,90.72l-3-6.56C35,84.04,34.92,84,34.82,84h-0.12
			c-0.1,0-0.15,0.05-0.21,0.16l-2.98,6.56H38.06z"/>
		<path class="st0" d="M56.48,80.75c2.89,0,4.16,1.53,4.16,4.69v1.33c0,2.65-0.89,4.21-2.81,4.66l3.23,4.73
			c0.16,0.23,0.06,0.59-0.25,0.59h-2.59c-0.31,0-0.41-0.09-0.54-0.3l-3.08-4.64h-6.14v4.44c0,0.34-0.14,0.5-0.43,0.5h-2.09
			c-0.29,0-0.43-0.16-0.43-0.5V81.44c0-0.46,0.19-0.69,0.58-0.69H56.48z M55.88,88.8c1.32,0,1.8-0.55,1.8-1.92v-0.96
			c0-1.39-0.5-1.97-1.8-1.97h-7.17c-0.17,0-0.25,0.07-0.25,0.25v4.59H55.88z"/>
		<path class="st0" d="M76.69,80.75c0.29,0,0.43,0.16,0.43,0.5v2.24c0,0.34-0.14,0.5-0.43,0.5h-8.62c-1.99,0-2.57,0.71-2.57,3.13
			v3.25c0,2.42,0.58,3.13,2.57,3.13h8.62c0.29,0,0.43,0.16,0.43,0.5v2.24c0,0.34-0.14,0.5-0.43,0.5h-8.71
			c-3.93,0-5.42-1.65-5.42-6.03v-3.93c0-4.39,1.49-6.03,5.42-6.03H76.69z"/>
		<path class="st0" d="M87.79,80.75c1.01,0,1.59,0.34,2.23,1.74l6.41,13.74c0.14,0.32,0.08,0.52-0.23,0.52h-2.46
			c-0.25,0-0.37-0.07-0.45-0.27l-1.28-2.79h-9.28l-1.26,2.79c-0.1,0.2-0.19,0.27-0.45,0.27H78.5c-0.31,0-0.37-0.21-0.23-0.52
			l6.35-13.74c0.62-1.39,1.22-1.74,2.03-1.74H87.79z M90.64,90.72l-3-6.56C87.58,84.04,87.5,84,87.41,84h-0.12
			c-0.1,0-0.15,0.05-0.21,0.16l-2.98,6.56H90.64z"/>
	</g>
</g>
</svg>
