<?xml version="1.0" encoding="utf-8"?>
<!-- Generator: Adobe Illustrator 23.0.5, SVG Export Plug-In . SVG Version: 6.00 Build 0)  -->
<svg version="1.1" id="Capa_1" xmlns="http://www.w3.org/2000/svg" xmlns:xlink="http://www.w3.org/1999/xlink" x="0px" y="0px"
	 viewBox="0 0 634 200" style="enable-background:new 0 0 634 200;" xml:space="preserve">
<style type="text/css">
	.st0{fill:#F2F2F2;}
</style>
<g>
	<g>
		<path class="st0" d="M12.5,95.24l32.81-81.38h122.57l-7.1,17.61H91.89l-6.96,17.19h67.46l-7.1,17.61H77.83l-6.96,17.19h68.88
			l-7.1,17.61H15.2C11.79,101.06,10.89,99.12,12.5,95.24z"/>
		<path class="st0" d="M227.25,13.85l4.97,29.83l28.97-29.83h57.38l-41.33,43.32l6.11,43.89h-50.56l-4.97-29.83l-30.25,29.83h-56.1
			l41.61-43.89l-4.97-43.32H227.25z"/>
		<path class="st0" d="M429.5,71.23h-56.1l7.1-17.61h23.58l8.95-22.16h-39.06l-28.12,69.59h-53.69l35.22-87.21h142.31
			c0.76,0,1.37,0.71,1.85,2.13c0.47,1.42,0.38,2.98-0.28,4.69L460.6,46.95c-1.33,3.32-2.75,6.3-4.26,8.95
			c-1.52,2.65-3.43,5.02-5.75,7.1c-2.32,2.08-5.16,3.81-8.52,5.18C438.71,69.55,434.52,70.57,429.5,71.23z"/>
		<path class="st0" d="M622.37,19.68l-26.42,65.33c-0.66,1.61-1.68,3.34-3.05,5.18c-1.37,1.85-2.98,3.58-4.83,5.18
			c-1.85,1.61-3.84,2.96-5.97,4.05c-2.13,1.09-4.28,1.63-6.46,1.63H454.07c-3.41,0-4.31-1.94-2.7-5.82l26.28-65.33
			c0.66-1.51,1.65-3.2,2.98-5.04c1.33-1.85,2.91-3.57,4.76-5.18c1.85-1.61,3.84-2.98,5.96-4.12c2.13-1.14,4.33-1.7,6.6-1.7h121.44
			C622.8,13.85,623.79,15.8,622.37,19.68z M533.32,31.47c-0.85,0-1.63,0.35-2.34,1.06c-0.71,0.71-1.21,1.4-1.49,2.06l-19.74,48.86
			h30.54c0.95,0,1.73-0.36,2.34-1.07c0.61-0.71,1.06-1.4,1.35-2.06l19.74-48.86H533.32z"/>
	</g>
	<g>
		<path class="st0" d="M167.8,135.7c16.02,0,21.79,4.85,21.79,18.49v13.27c0,13.64-5.77,18.49-21.79,18.49h-25.9
			c-16.02,0-21.69-4.85-21.69-18.49V154.2c0-13.64,5.68-18.49,21.69-18.49H167.8z M133.2,165.18c0,7.69,2.01,9.61,9.98,9.61h23.34
			c8.05,0,10.07-1.92,10.07-9.61v-8.69c0-7.6-2.01-9.52-10.07-9.52h-23.34c-7.96,0-9.98,1.92-9.98,9.52V165.18z"/>
		<path class="st0" d="M206.65,135.7v-1.83c0-13.55,4.3-18.31,18.49-18.31h11.17c1.1,0,1.65,0.55,1.65,1.65v7.96
			c0,1.1-0.55,1.65-1.65,1.65h-8.97c-5.86,0-7.6,1.83-7.6,7.05v1.83h16.02c1.1,0,1.65,0.55,1.65,1.65v7.96
			c0,1.1-0.55,1.65-1.65,1.65h-16.02v36.98c0,1.37-0.73,2.01-2.11,2.01h-8.97c-1.28,0-2.01-0.64-2.01-2.01v-36.98h-8.79
			c-1.1,0-1.65-0.55-1.65-1.65v-7.96c0-1.1,0.55-1.65,1.65-1.65H206.65z"/>
		<path class="st0" d="M253.36,135.7v-1.83c0-13.55,4.3-18.31,18.49-18.31h11.17c1.1,0,1.65,0.55,1.65,1.65v7.96
			c0,1.1-0.55,1.65-1.65,1.65h-8.97c-5.86,0-7.6,1.83-7.6,7.05v1.83h16.02c1.1,0,1.65,0.55,1.65,1.65v7.96
			c0,1.1-0.55,1.65-1.65,1.65h-16.02v36.98c0,1.37-0.73,2.01-2.11,2.01h-8.97c-1.28,0-2.01-0.64-2.01-2.01v-36.98h-8.79
			c-1.1,0-1.65-0.55-1.65-1.65v-7.96c0-1.1,0.55-1.65,1.65-1.65H253.36z"/>
		<path class="st0" d="M319.29,149.53c1.1,0,1.65,0.55,1.65,1.65v6.59c0,1.1-0.55,1.65-1.65,1.65h-27.55c-1.1,0-1.65-0.55-1.65-1.65
			v-6.59c0-1.1,0.55-1.65,1.65-1.65H319.29z"/>
		<path class="st0" d="M375.88,135.7c1.1,0,1.65,0.55,1.65,1.65v8.06c0,1.1-0.55,1.65-1.65,1.65h-24.35c-7.96,0-9.98,2.01-9.98,9.7
			v27.19c0,1.37-0.64,2.01-2.01,2.01h-8.97c-1.38,0-2.02-0.64-2.02-2.01V154.2c0-13.46,5.59-18.49,21.7-18.49H375.88z"/>
		<path class="st0" d="M431.84,135.7c16.02,0,21.79,4.85,21.79,18.49v13.27c0,13.64-5.77,18.49-21.79,18.49h-25.9
			c-16.02,0-21.69-4.85-21.69-18.49V154.2c0-13.64,5.68-18.49,21.69-18.49H431.84z M397.24,165.18c0,7.69,2.01,9.61,9.98,9.61h23.34
			c8.05,0,10.07-1.92,10.07-9.61v-8.69c0-7.6-2.01-9.52-10.07-9.52h-23.34c-7.96,0-9.98,1.92-9.98,9.52V165.18z"/>
		<path class="st0" d="M505.12,135.7c16.2,0,21.79,5.03,21.79,18.49v24.44c0,5.86-1.37,7.32-6.78,7.32h-43.57
			c-10.53,0-14.1-3.57-14.1-13v-4.39c0-8.51,4.21-12.63,14.1-12.63h37.35v-0.92c0-5.86-2.2-7.96-10.07-7.96h-38.17
			c-1.1,0-1.65-0.55-1.65-1.65v-8.06c0-1.1,0.55-1.65,1.65-1.65H505.12z M513.9,172.04v-6.68h-33.5c-3.94,0-5.03,1.1-5.03,3.85v1.92
			c0,3.11,1.1,3.94,5.03,3.94h30.67C513.08,175.07,513.9,174.24,513.9,172.04z"/>
		<path class="st0" d="M592.12,135.7v-16.39c0-1.37,0.73-2.01,2.01-2.01h8.97c1.38,0,2.02,0.64,2.02,2.01v48.15
			c0,13.55-5.59,18.49-21.79,18.49H557.7c-16.11,0-21.69-4.94-21.69-18.49V154.2c0-13.46,5.58-18.49,21.69-18.49H592.12z
			 M592.12,164.91v-17.85h-33.14c-7.87,0-9.98,1.92-9.98,9.7v8.15c0,7.78,2.11,9.7,9.98,9.7h23.07
			C589.92,174.61,592.12,172.68,592.12,164.91z"/>
	</g>
</g>
</svg>
