<?xml version="1.0" encoding="utf-8"?>
<!-- Generator: Adobe Illustrator 23.0.5, SVG Export Plug-In . SVG Version: 6.00 Build 0)  -->
<svg version="1.1" id="Capa_1" xmlns="http://www.w3.org/2000/svg" xmlns:xlink="http://www.w3.org/1999/xlink" x="0px" y="0px"
	 viewBox="0 0 100 100" style="enable-background:new 0 0 100 100;" xml:space="preserve">
<style type="text/css">
	.st0{fill:#FFFFFF;}
</style>
<g>
	<path class="st0" d="M100,50.01c0.12,27.56-22.6,50.12-50.25,49.99C22.52,99.87-0.23,77.45,0,49.46C0.23,22.09,22.72-0.13,50.37,0
		C77.83,0.13,100.09,22.56,100,50.01z M62.94,28.77c0-4.02,0-7.89,0-11.53c-4.22,0-8.34-0.28-12.4,0.07
		c-4.94,0.43-8.45,3.16-9.82,8.08c-0.5,1.79-0.73,3.69-0.82,5.55c-0.13,2.73-0.03,5.47-0.03,8.34c-2.35,0-4.45,0-6.59,0
		c0,3.94,0,7.73,0,11.68c2.18,0,4.28,0,6.55,0c0,11.39,0,22.61,0,33.86c4.53,0,8.88,0,13.35,0c0-11.32,0-22.51,0-33.88
		c1.75,0,3.38,0.02,5.01-0.01c1.2-0.02,2.72,0.33,3.49-0.27c0.66-0.51,0.53-2.12,0.65-3.26c0.29-2.66,0.52-5.33,0.79-8.15
		c-3.39,0-6.6,0-9.81,0c-0.07-0.26-0.15-0.39-0.15-0.52c-0.01-2.08-0.06-4.16,0-6.23c0.08-2.8,0.99-3.68,3.81-3.73
		C58.94,28.74,60.91,28.77,62.94,28.77z"/>
</g>
</svg>
