<?xml version="1.0" encoding="utf-8"?>
<!-- Generator: Adobe Illustrator 25.4.1, SVG Export Plug-In . SVG Version: 6.00 Build 0)  -->
<svg version="1.1" id="Capa_1" xmlns="http://www.w3.org/2000/svg" xmlns:xlink="http://www.w3.org/1999/xlink" x="0px" y="0px"
	 viewBox="0 0 170.08 170.08" style="enable-background:new 0 0 170.08 170.08;" xml:space="preserve">
<style type="text/css">
	.st0{fill:#1D1D1B;}
	.st1{fill:#FFFFFF;}
</style>
<g>
	<circle class="st0" cx="85.04" cy="85.04" r="77.95"/>
</g>
<g>
	<path class="st1" d="M152.33,91.61c0.84,0.55,0.61,1.33,0.26,2.14c0.08,0.01,0.16,0.02,0.25,0.03c0.26-0.17,0.53-0.35,0.88-0.57
		c0.13,0.44,0.25,0.84,0.36,1.24c-0.16,0.06-0.35,0.09-0.47,0.2c-0.41,0.4-0.63,0.43-1.08,0.05c0.19-0.11,0.37-0.2,0.55-0.3
		c-0.01-0.04-0.03-0.07-0.04-0.11c-0.48,0.05-0.96,0.09-1.52,0.15c0.08,0.43,0.15,0.79,0.25,1.21c0.46-0.05,0.89-0.11,1.32-0.15
		c0.65-0.06,1.05-0.35,0.97-1.07c0.25,0.45,0.49,0.91,0.74,1.36c-0.08,0.04-0.15,0.07-0.24,0.12c-0.06-0.13-0.14-0.25-0.25-0.47
		c-0.16,0.3-0.28,0.51-0.45,0.8c0.21-0.04,0.36-0.05,0.45-0.07c0.21,0.46,0.41,0.91,0.61,1.35c-0.33,0.09-0.65,0.19-1.24,0.35
		c0.7,0.56,1.22,0.98,1.75,1.41c0-0.54,0-0.92,0-1.31c0.15,0.61,0.5,1.12-0.02,1.84c-0.31,0.43-0.05,1.25-0.05,1.67
		c0.24,0.39,0.51,0.65,0.51,0.89c-0.01,0.51,0.27,1.15-0.52,1.44c-0.75,0.27-0.75,0.41-0.15,0.91c0.44,0.35,0.22,1.77-0.41,2.09
		c-0.88,0.45-0.9,1.16-0.79,1.96c0.07,0.52-0.57,1.24-1.12,1.31c-0.25,0.04-0.62,0.11-0.72,0.29c-0.09,0.15,0.13,0.47,0.25,0.83
		c-0.35,0.48-0.54,1.22-1.59,1.05c-0.38-0.06-1.29-0.03-1.18,0.97c0.03,0.2-0.43,0.46-0.67,0.68c-0.78,0.72-1.66,1.16-2.73,0.73
		c-0.47-0.19-0.65-0.01-0.95,0.31c-0.73,0.74-1.36,1.65-2.53,1.78c-0.12,0.01-0.25,0.15-0.32,0.27c-0.48,0.81-1.03,1.05-1.91,0.79
		c-0.37,1.74-1.84,1.41-3.07,1.61c0,0.82-0.56,0.84-1.2,0.85c-2.16,0.06-4.33,0.19-6.49,0.25c-1.08,0.03-2.17,0.05-3.24-0.08
		c-0.57-0.07-1.11-0.48-1.65-0.77c-0.32-0.17-0.56-0.3-0.89,0c-0.13,0.12-0.42,0.08-0.63,0.06c-0.17-0.02-0.34-0.12-0.5-0.2
		c-0.75-0.38-1.63-0.67-1.31-1.85c-1.14,0.4-1.37,0.28-2.14-0.55c-0.85-0.93-1.79-1.77-2.69-2.65c-0.58-0.57-1.28-1.06-1.23-2.03
		c0.01-0.11-0.13-0.22-0.18-0.33c-0.66-1.22-1.35-2.42-1.95-3.65c-0.18-0.37-0.08-0.88-0.14-1.33c-0.04-0.29-0.15-0.57-0.19-0.85
		c-0.16-1.07-0.34-2.14-0.45-3.21c-0.05-0.55-0.24-0.74-0.81-0.74c-6.35-0.05-12.68-0.11-19.03-0.2
		c-9.13-0.13-18.25-0.28-27.37-0.42c-0.28,0-0.55,0-0.88,0c-0.04,0.46-0.06,0.87-0.1,1.29c-0.29,0.13-0.57,0.26-0.97,0.45
		c1,0.62,0.58,1.31,0.35,2.01c-0.18,0.54-0.75,0.9-0.46,1.66c0.22,0.57-0.74,1.37-1.42,1.39c-0.1,0-0.2,0.03-0.49,0.06
		c0.21,0.4,0.38,0.73,0.65,1.25c-0.45,0.28-0.95,0.6-1.44,0.91c-0.52,0.32-1.18,0.39-1.04,1.38c0.1,0.69-1.31,1.64-2.21,1.66
		c-0.52,0.02-0.84,0.16-1.1,0.63c-0.4,0.67-1.57,0.85-2.32,0.44c-0.92,0.88-1.87,0.99-2.71,0.3c-0.68,0.55-1.32,0.76-2.18,0.15
		c-0.36-0.25-1.13,0.03-1.7,0.1c-0.22,0.03-0.45,0.26-0.64,0.23c-1.02-0.19-1.66,0.33-2.34,0.99c-0.65,0.65-1.4,1.2-2.15,1.75
		c-0.35,0.25-0.83,0.56-1.17,0.49c-0.88-0.17-1.15,0.28-1.26,1.01c-0.97,0-1.89-0.02-2.81,0.01c-0.23,0.01-0.45,0.15-0.66,0.26
		c-0.67,0.32-1.3,0.86-2.07,0.13c-0.14-0.13-0.7-0.04-0.86,0.15c-0.72,0.76-2.41,0.58-2.85-0.33c-0.09-0.19-0.37-0.28-0.59-0.44
		c-0.36,0.92-1.55,1.19-1.96,0.51c-0.4-0.66-0.94-0.55-1.52-0.62c-0.85-0.1-1.75-0.16-2.53-0.49c-0.42-0.18-0.61-0.88-0.9-1.35
		c-1.35,0.54-1.7,0.38-2.85-1.28c0.15-0.17,0.31-0.36,0.53-0.62c-0.2-0.04-0.32-0.08-0.42-0.06c-1.05,0.23-1.78-0.24-2.4-1.02
		c-0.24-0.3-0.66-0.49-0.27-1.03c0.09-0.13-0.28-0.86-0.5-0.89c-0.79-0.1-0.82-0.75-1.13-1.22c-0.44-0.67,0.11-1.03,0.44-1.45
		c0.03-0.04,0.02-0.1,0.03-0.24c-0.18-0.07-0.37-0.17-0.58-0.25c-0.77-0.27-1.04-0.71-0.98-1.52c0.04-0.68,0.04-1.37,0.01-2.06
		c-0.01-0.16-0.16-0.35-0.29-0.47c-0.73-0.74-0.56-2.69,0.34-3.11c0.57-0.26,0.58-0.63,0.55-0.97c-0.39-0.25-1-0.51-0.97-0.64
		c0.15-0.65,0.43-1.27,0.7-1.88c0.12-0.26,0.35-0.49,0.48-0.75c0.18-0.34,0.32-0.69,0.49-1.04c0.2-0.4,0.42-0.8,0.69-1.32
		c-0.33,0.02-0.48,0.03-0.64,0.04c0-1.04,0.83-1.88,1.62-1.68c0.35-0.48,0.74-0.91,0.45-1.64c-0.09-0.25,0.26-0.73,0.51-1.02
		c0.23-0.26,0.4-0.74,1-0.38c0.2,0.12,0.7-0.29,1.05-0.45c-0.25-1.54,0.88-2.61,2.31-2.2c0.56,0.16,0.64-0.06,0.6-0.4
		c0.33-0.11,0.63-0.21,0.9-0.31c0.87,0.46,1.79,0.95,3.02,1.59c-0.69,0.54-1.25,0.96-1.8,1.39c0.05,0.06,0.09,0.13,0.13,0.19
		c0.92-0.41,1.84-0.82,2.77-1.23c-0.15-0.25-0.32-0.48-0.46-0.74c-0.55-0.91-1.13-1.69-2.41-1.54c-0.46,0.05-0.97-0.27-1.53-0.6
		c0.38-0.08,0.76-0.24,1.14-0.22c0.59,0.03,1.17,0.17,1.78,0.27c-0.05-1.39,0.08-1.52,1.31-1.46c-0.38,0.14-0.76,0.28-1.15,0.42
		c0.01,0.05,0.02,0.09,0.03,0.15c0.27-0.05,0.55-0.13,0.83-0.15c0.84-0.08,1.71-0.32,2.52-0.17c0.74,0.13,1.42,0.65,2.09,1.05
		c0.07,0.05-0.01,0.55-0.15,0.74c-0.49,0.61-1.04,1.17-1.73,1.93c1.35,0,2.43,0,3.48,0c0.07-0.25,0.12-0.55,0.24-0.79
		c0.55-1.15,0.27-1.85-0.94-2.39c-0.66-0.3-1.32-0.64-1.97-0.95c0.02-0.07,0.04-0.14,0.06-0.21c0.53,0,1.06,0,1.59,0
		c-0.03,0.05-0.05,0.1-0.09,0.15c0.6,0.31,1.19,0.61,1.65,0.85c0.42-0.33,0.75-0.75,0.95-0.7c0.65,0.15,1.5,0.32,1.84,0.79
		c0.58,0.84,1.41,0.85,2.1,0.77c0.73-0.07,1.3-0.04,1.91,0.44c0.25-0.99,0.54-1.93,0.73-2.87c0.19-0.95-0.65-1.6-1.55-1.25
		c-0.31,0.12-0.62,0.23-0.99,0.36c-0.59-1.12-1.15-2.22-1.76-3.28c-0.18-0.32-0.54-0.61-0.88-0.75c-1.26-0.52-2.54-1-3.84-1.44
		c-0.91-0.3-1.59-0.84-2.05-1.65c-0.26-0.46-0.53-0.63-1.1-0.51c-1.28,0.27-2.59,0.42-3.88,0.65c-1.74,0.31-3.45,0.12-5.13-0.34
		c-0.44-0.12-0.83-0.55-1.15-0.92c-0.24-0.25-0.35-0.63-0.5-0.95c-0.65-1.41-0.52-1.73,0.99-2.23c0.12-0.04,0.25-0.05,0.48-0.11
		c-0.32-0.35-0.64-0.59-0.84-0.92c-0.43-0.67-0.88-1.35-1.15-2.07c-0.35-0.95-0.12-1.27,0.92-1.63c0.28,0.02,0.56,0.06,0.85,0.05
		c1.77-0.14,3.54-0.35,5.31-0.42c3.55-0.12,7.11-0.15,10.65-0.23c0.25-0.01,0.51-0.05,0.77-0.06c-0.01-0.08-0.01-0.15-0.02-0.24
		c-5.87-0.2-11.75-0.24-17.56,0.9c0.8-0.23,1.59-0.6,2.4-0.64c1.23-0.05,2.07-0.6,2.92-1.43c4.27-4.2,8.89-7.98,14.02-11.11
		c0.21-0.13,0.32-0.44,0.47-0.65c-0.05-0.06-0.12-0.13-0.17-0.19c0.51-0.19,1.02-0.38,1.53-0.57c-0.02-0.05-0.04-0.11-0.05-0.16
		c-0.44,0.11-0.87,0.22-1.3,0.34c-0.99,0.26-1.67-0.15-1.86-1.15c-0.05-0.3-0.07-0.62-0.04-0.92c0.09-0.9,0.48-1.26,1.36-1.19
		c1.56,0.13,3.13,0.28,4.69,0.45c0.25,0.03,0.49,0.21,0.75,0.32c0.44-0.21,0.89-0.46,1.37-0.64c0.71-0.25,1.4-0.35,1.94,0.4
		c0.09,0.14,0.41,0.15,0.63,0.15C55.9,50.02,62.95,49.54,70,49.3c3.08-0.11,6.17,0.28,9.25,0.43c6.85,0.34,13.43,2.29,20.12,3.59
		c0.44,0.08,0.86,0.35,1.23,0.61c6.9,5.19,13.77,10.41,20.68,15.57c0.76,0.57,1.72,0.93,2.65,1.24c1.45,0.48,2.96,0.83,4.56,1.26
		c-0.37-0.65-0.67-1.19-1.06-1.87c0.31,0.05,0.47,0.05,0.62,0.1c2.21,0.67,4.43,1.35,6.64,2.04c1.41,0.44,2.67,1.15,3.57,2.33
		c0.78,1.03,1.77,1.71,2.92,2.19c1.08,0.45,1.71,1.21,2.01,2.35c0.37,1.45,0.82,2.87,1.32,4.27c0.15,0.4,0.53,0.81,0.91,1.02
		c1.05,0.58,2.17,1.06,3.26,1.57c1.13,0.52,1.33,1.58,1.46,2.63c0.04,0.29-0.35,0.63-0.62,1.08c0.31-0.03,0.5-0.05,0.71-0.07
		c0.05,0.22,0.12,0.45,0.21,0.81c0.19-0.29,0.3-0.46,0.51-0.78c0.5,0.68,0.96,1.33,1.43,1.96c-0.23-0.2-0.45-0.39-0.77-0.68
		c-0.29,0.61-0.55,1.14-0.82,1.72c0.69,0,1.26,0,1.95,0C152.57,92.27,152.45,91.94,152.33,91.61z M45.9,94.23
		c-0.4,0.68-0.8,1.36-1.2,2.04c0.69-0.54,1.04-0.26,1.24,0.68c0.21-0.92,0.41-1.57,0.49-2.24c0.03-0.18-0.25-0.41-0.4-0.62
		c0.2-0.1,0.4-0.21,0.6-0.31c0.96-0.47,0.98-0.55,0.25-1.44c-0.15,0.33-0.59,0.49-1.03,0.37c-0.75-0.19-1.71,0.15-2.11,0.78
		c-0.09,0.15-0.15,0.44-0.08,0.55c0.25,0.36,0.53,0.81,0.9,0.95c0.23,0.09,0.65-0.29,0.98-0.48C45.68,94.46,45.78,94.33,45.9,94.23z
		 M122.43,87.85c1,0.19,0.99,0.18,0.78,1.2c-0.15,0.72-0.24,1.44-0.36,2.25c0.74-0.37,1.41-0.71,2.09-1.05
		c-0.08-0.05-0.16-0.09-0.25-0.15c0.05-0.39,0.13-0.78,0.15-1.18c0.02-0.49,0.17-1.09-0.05-1.45
		C124.45,86.92,122.84,87.25,122.43,87.85c-0.15,0.31-0.42,0.6-0.44,0.91c-0.04,0.62,0.05,1.25,0.1,1.9c0.8-0.68,0.92-1.08,0.6-1.95
		C122.59,88.44,122.52,88.14,122.43,87.85z M49.26,106.79c0.04,0.29,0.06,0.58,0.11,0.95c0.48-0.15,0.88-0.27,1.28-0.4
		c-0.45-1.03-0.68-1.1-1.42-0.52c0.49-0.65,0.4-1.32-0.09-1.88c-0.4-0.46-0.15-0.65,0.24-0.91c0.23,0.36,0.44,0.69,0.65,1.05
		c0.54-0.79,0.47-1.07-0.16-1.58c-0.25-0.19-0.4-0.5-0.64-0.82c-1.24,0.66-0.38,2.09-0.98,3.15c-0.35-0.3-0.75-0.52-0.96-0.85
		c-0.22-0.32-0.28-0.75-0.41-1.14c-0.16,0.68-0.21,1.32-0.24,1.95c-0.01,0.17-0.02,0.38,0.07,0.52
		C47.03,106.76,48.73,107.07,49.26,106.79z M49.5,99.41c-1.17-0.75-1.17-0.75-1.2-1.28c0.18,0.14,0.34,0.3,0.52,0.36
		c0.22,0.07,0.47,0.05,0.7,0.06c-0.07-0.22-0.09-0.48-0.23-0.65c-0.38-0.46-0.82-0.88-1.18-1.26c-0.37,0.65-0.69,1.35-1.13,1.95
		c-0.3,0.41-0.76,0.64-1.32-0.11c0.19,0.58,0.3,0.92,0.36,1.1c0.52-0.22,1.04-0.44,1.64-0.69c0.03,0.51,0.13,0.86,0.05,1.16
		c-0.08,0.3-0.35,0.55-0.55,0.84c0.64,0.67,0.64,0.67,2.48-0.46c-0.05-0.35-0.1-0.7-0.15-1.05c1.65-0.46,3.29-0.93,5-1.41
		c-0.13-0.34-0.23-0.58-0.35-0.9c-1.45,0.55-2.85,1.07-4.22,1.65C49.72,98.82,49.64,99.19,49.5,99.41z M141.05,82.45
		c0.44,0.2,0.87,0.4,1.48,0.68c-0.75-1.82-1.42-3.5-2.13-5.16c-0.1-0.24-0.37-0.44-0.61-0.55c-1.12-0.56-2.24-1.17-3.4-1.63
		c-1.75-0.69-3.55-1.27-5.33-1.9c-0.05,0.09-0.1,0.17-0.15,0.26c0.81,1.39,1.72,2.74,2.39,4.19c0.86,1.87,2.16,3,4.23,3.33
		c1.08,0.17,2.13,0.55,3.19,0.83C140.82,82.48,140.93,82.47,141.05,82.45z M129.98,85.07c-0.35,0.06-0.69,0.13-1.03,0.19
		c0.31,0.48,0.6,0.95,0.9,1.41c-0.08,0.06-0.16,0.13-0.25,0.19c-0.17-0.15-0.33-0.36-0.53-0.46c-0.42-0.22-0.85-0.49-1.29-0.54
		c-0.53-0.05-0.96-0.08-1.08-0.73c-0.42,0.08-0.77,0.15-1.36,0.27c0.49,0.48,0.85,0.8,1.15,1.15c0.18,0.22,0.46,0.55,0.4,0.74
		c-0.27,0.85-0.65,1.66-0.96,2.42c1.04-0.12,2.26-0.18,2.38-1.77c1.53,0.36,2.25-0.25,2.31-1.83c0.01-0.21,0.2-0.4,0.33-0.64
		c0.57,0.58,0.47,1.31-0.13,1.93c-0.5,0.51-0.98,1.05-1.58,1.69c0.73,0,1.24-0.02,1.75,0c1.4,0.05,2.84-0.18,4.18,0.48
		c0.15,0.07,0.45-0.12,0.66-0.22c0.56-0.25,1.12-0.53,1.68-0.79c0.03,0.07,0.06,0.14,0.09,0.21c-0.29,0.08-0.58,0.15-0.94,0.25
		c0.99,1.08,1.98,0.05,3.06,0.02c-0.45,1.1-1.41,1.02-2.19,1.26c0.68,0.46,1.34,0.9,1.98,1.34l-0.03-0.03
		c0.79,0.68,1.57,1.35,2.39,2.06c0.13-0.06,0.28-0.16,0.45-0.21c0.17-0.05,0.38-0.11,0.53-0.05c0.91,0.33,1.62,0.13,2.15-0.7
		c0.01-0.02,0.09,0.01,0.15,0.02c0.35,1.26-0.95,0.7-1.43,1.28c0.56,0.12,1.03,0.22,1.72,0.37c-0.86,0.97-1.8,0.55-2.71,0.49
		c0.35,0.54,0.69,1.04,1.01,1.52c0.78-0.17,1.51-0.34,2.21,0.19c-0.18,0.14-0.3,0.23-0.41,0.31c0.46,0.27,0.88,0.51,1.32,0.76
		c0.16-0.09,0.34-0.2,0.57-0.34c0,0.41,0,0.73,0,1.07c-0.4,0.02-0.74,0.04-1.09,0.05c0.29,0.5,0.54,0.91,0.8,1.36
		c0.2-0.04,0.47-0.09,0.87-0.17c-0.09,0.33-0.15,0.57-0.23,0.81c0.05-0.03,0.1-0.06,0.15-0.09c0.41,1.18,0.82,2.36,1.23,3.55
		c0-0.75,0.24-1.45-0.47-2.13c-0.63-0.61-0.25-1.37,0.65-1.49c-0.16-0.74,0.05-1.59-1.08-1.84c-0.58-0.13-0.69-1.14-0.29-1.58
		c0.15-0.16,0.27-0.51,0.2-0.69c-0.12-0.3-0.35-0.65-0.63-0.77c-0.88-0.36-1.77-0.65-2-1.77c0.87-0.43,0.71,0.63,1.16,0.75
		c0.47-0.44,0.32-0.93-0.73-1.85c-0.33-0.28-0.65-1.06-1.36-0.17c-0.28-0.43-0.74-0.8-0.76-1.2c-0.09-1.25-0.69-2.01-1.95-2.13
		c0.19,0.24,0.35,0.45,0.55,0.68c-0.33,0.14-0.61,0.25-0.98,0.4c-0.11-0.91-0.56-1.48-1.54-1.58c0.17-0.15,0.3-0.2,0.43-0.23
		c0.18-0.03,0.37-0.03,0.56-0.05c-0.06-0.23-0.07-0.52-0.22-0.65c-0.3-0.26-0.68-0.44-1.03-0.65c0,0.09,0,0.19,0,0.28
		c-0.23,0.05-0.45,0.08-0.6,0.11c-0.17,0.19-0.31,0.35-0.45,0.51c-0.1-0.36-0.2-0.73-0.35-1.26c-0.25-0.11-0.73-0.31-1.2-0.52
		c0.91,0.65,1.22,1.45,0.59,2.25c-0.05-1.6-1.56-1.85-2.35-2.79c0.19-0.05,0.3-0.07,0.42-0.1c0.02-0.06,0.05-0.14,0.06-0.2
		c-0.55-0.19-1.1-0.38-1.65-0.56c-0.05,0.08-0.11,0.15-0.15,0.24c0.4,0.55,0.78,1.11,1.2,1.64c0.25,0.32,0.44,0.55,0.21,1.02
		c-0.45,0.89-2,1.44-3.09,1.01c0.16-0.73,1.48-0.82,1.08-1.81c-0.28-0.72-0.63-1.51-1.63-1.42c-0.31-1.06-0.67-1.15-2.57-0.66
		c0.25,0.13,0.49,0.25,0.74,0.37C129.95,85.1,129.98,85.07,129.98,85.07z M57.27,74.38l-0.02-0.01c5.55,5.15,11.09,10.3,16.63,15.45
		c0.5,0.46,0.99,0.95,1.52,1.37c0.37,0.3,0.58,0.78,1.27,0.7c1.14-0.14,2.3-0.08,3.45-0.09c0.56-0.01,1.12,0,1.68,0
		c0.02-0.06,0.03-0.13,0.05-0.2c-0.49-0.25-0.99-0.48-1.48-0.74c-1.07-0.54-2.15-1.06-3.23-1.63c-1.11-0.58-2.21-1.19-3.32-1.79
		c-1.78-0.97-3.56-1.95-5.34-2.92c-0.11-0.06-0.22-0.15-0.27-0.26c-0.55-1.09-1.1-2.2-1.66-3.33c2.47,0.01,32.39,7.85,33.07,8.69
		c-9.05-2.07-18.03-4.14-27.05-6.2c0.07,0.08,0.1,0.15,0.15,0.19c2.61,1.69,5.22,3.38,7.85,5.05c1.03,0.65,2.09,1.25,3.15,1.85
		c0.82,0.45,1.62,1.08,2.5,1.25c1.15,0.24,2.39,0.12,3.59,0.12c1.27,0,2.55-0.06,3.83-0.05c1.77,0.02,3.55,0.08,5.33,0.1
		c0.19,0,0.49-0.13,0.55-0.26c0.26-0.72,0.48-1.45,0.66-2.19c0.24-0.94,0.39-1.89,0.64-2.83c0.74-2.84,1.52-5.66,2.24-8.5
		c0.07-0.3-0.1-0.74-0.3-1c-0.36-0.47-0.85-0.86-1.31-1.32c0.85-0.73,1.33-1.51,0.65-2.4c-0.21-0.27-0.84-0.23-1.41-0.35
		c0,0.81,0,1.43,0,2.19c-0.55-0.48-0.96-0.87-1.41-1.2c-0.17-0.13-0.51-0.25-0.66-0.17c-1.43,0.78-3,0.97-4.55,1.06
		c-2.38,0.14-4.86,0.5-7.15,0.05c-7.63-1.49-15.19-3.29-22.77-4.98c-3.26-0.73-6.53-1.45-9.8-2.16c-0.24-0.05-0.61-0.05-0.75,0.09
		c-0.58,0.6-0.55,1.38,0.01,2.05c0.35,0.42,0.67,0.85,1.02,1.26C55.49,72.31,56.38,73.34,57.27,74.38z M67.07,67.74
		c0.68-2.45,1.15-4.86,1.03-7.36c-0.03-0.56,0.03-1.14,0.13-1.69c0.04-0.22,0.26-0.52,0.45-0.56c1.47-0.37,2.86,0.28,3.58,1.62
		c0.66,1.24,0.96,2.59,0.48,3.88c-0.51,1.35-0.13,2.03,0.95,2.85c1.66,1.29,3.13,2.84,4.69,4.25c0.23,0.21,0.57,0.4,0.86,0.39
		c2.65-0.05,5.23,0.32,7.78,1.05c0.55,0.15,1.24,0,1.8-0.18c0.25-0.08,0.35-0.59,0.53-0.91c0.08-0.15,0.15-0.33,0.25-0.47
		c1.71-2.45,3.41-4.9,5.15-7.33c0.24-0.34,0.64-0.61,1.03-0.75c0.22-0.08,0.63,0.06,0.81,0.25c0.13,0.13,0.09,0.54-0.01,0.75
		c-0.24,0.48-0.55,0.94-0.86,1.36c-0.3,0.41-0.42,0.79-0.15,1.28c0.25,0.47,0.62,0.55,1.09,0.51c0.71-0.05,1.43-0.01,1.93,0.57
		c0.33,0.39,0.65,0.38,1.08,0.25c1.05-0.31,2.11-0.42,2.92,0.53c0.7,0.83,1.54,0.42,2.49,0.49c-0.19-0.21-0.24-0.27-0.29-0.32
		c-5.12-4.16-10.24-8.33-15.36-12.46c-0.26-0.21-0.71-0.31-1.06-0.29c-5.97,0.24-11.95,0.51-17.93,0.72
		c-1.11,0.04-2.05,0.44-2.99,0.91c-0.13,0.06-0.29,0.18-0.32,0.31c-0.35,1.68-0.77,3.36-0.97,5.06c-0.15,1.25,0.05,2.53,0.01,3.78
		C66.13,66.99,66.5,67.41,67.07,67.74z M139.83,102.83c0.15-4.52-3.98-8.77-9.11-8.83c-4.31-0.05-8.58,4.04-8.54,8.7
		c0.05,4.89,3.88,8.87,8.71,8.9C135.92,111.64,139.81,107.82,139.83,102.83z M24.16,102.94c-0.08,4.66,3.6,8.48,8.24,8.56
		c4.67,0.08,8.55-3.71,8.71-8.35c0.16-4.92-3.66-8.49-8.06-8.66C28.34,94.32,24.1,98.25,24.16,102.94z M63.02,85.7
		c0.2-0.35,0.39-0.71,0.62-1.04c0.27-0.39,0.21-0.65-0.15-0.98c-2.97-2.71-5.87-5.5-8.91-8.13c-1.32-1.15-2.9-1.97-4.36-2.95
		c-0.05,0.06-0.09,0.14-0.14,0.2c0.06,0.06,0.12,0.13,0.19,0.17c4.32,2.7,7.89,6.28,11.61,9.7c0.19,0.17,0.24,0.5,0.35,0.75
		c-0.27-0.03-0.59,0.02-0.81-0.1c-3.36-1.85-6.71-3.74-10.08-5.56c-0.91-0.49-1.69-1.07-2.22-1.96c-0.71-1.18-1.65-2.05-3.01-2.49
		c-1-0.33-1.94-0.83-2.91-1.25c-4.45-1.95-9.05-3.25-13.95-3.32c-0.6-0.01-1.07,0.09-1.49,0.59c-1.29,1.54-2.65,3.03-3.96,4.55
		c-0.56,0.65-1.09,1.34-1.68,2.05c0.81,0.25,1.37,0.05,1.93-0.42c1.75-1.49,3.5-2.97,5.26-4.43c0.25-0.21,0.64-0.42,0.94-0.38
		c4.59,0.53,9.09,1.45,13.4,3.21c1.25,0.51,2.32,1.18,3.07,2.34c0.51,0.77,1.11,1.48,1.7,2.2c0.25,0.29,0.52,0.61,0.85,0.76
		C53.83,81.38,58.4,83.52,63.02,85.7z M96.81,57.51c-0.03,0.02-0.05,0.03-0.08,0.05c0.11,0.06,0.23,0.11,0.32,0.19
		c3.41,2.79,6.81,5.59,10.22,8.38c0.34,0.28,0.66,0.62,1.2,0.31c0.11-0.06,0.39,0.16,0.59,0.25c0.23,0.09,0.45,0.16,0.68,0.24
		c0.45,0.15,1.04,0.16,1.32,0.47c0.7,0.75,1.53,0.88,2.45,0.86c0.25,0,0.49,0.07,0.73,0.13c0.34,0.08,0.7,0.32,1.01,0.25
		c0.71-0.15,1.4-0.44,2.14-0.69c-0.11-0.12-0.15-0.18-0.21-0.23c-5.3-3.92-10.61-7.84-15.9-11.77c-0.5-0.37-0.76-0.08-1.17,0.23
		c0.35,0.2,0.62,0.36,1.02,0.6c-0.73,0.48-1.34,1.17-2.04,1.29C98.39,58.18,97.58,57.72,96.81,57.51z M105.48,98.86
		c-0.25-0.35-0.35-0.57-0.52-0.75c-1.13-1.16-2.25-2.33-3.41-3.45c-0.25-0.25-0.65-0.44-1-0.45c-2.74-0.18-5.47-0.35-8.22-0.46
		c-2.58-0.12-5.16-0.16-7.75-0.26c-0.72-0.03-1.43-0.18-2.14-0.22c-0.77-0.04-1.55,0.03-2.33-0.01c-1.35-0.08-2.7-0.15-4.03-0.34
		c-0.78-0.12-0.74,0.57-1.07,0.87c-0.09,0.08,0.06,0.56,0.23,0.76c0.95,1.17,1.92,2.34,2.94,3.45c0.25,0.28,0.72,0.51,1.09,0.51
		c6.67,0.14,13.35,0.25,20.02,0.34C101.29,98.89,103.26,98.86,105.48,98.86z M54.73,51.5c0.36,0,0.67,0.02,0.97,0
		c9.24-0.51,18.45-0.23,27.67,0.34c1.89,0.12,3.57,0.56,5.08,1.72c3.23,2.48,6.47,4.93,9.71,7.4c1.1,0.84,2.18,1.7,3.29,2.55
		c0.28-0.25,0.5-0.45,0.75-0.69c-1.45-1.15-2.85-2.27-4.28-3.36c-3.05-2.33-6.09-4.67-9.19-6.93c-1.05-0.76-2.17-1.5-3.55-1.6
		c-1.31-0.09-2.62-0.22-3.93-0.31c-6.69-0.46-13.39-0.61-20.1-0.46c-2.18,0.05-4.36,0.18-6.6,0.28
		C54.63,50.84,54.68,51.14,54.73,51.5z M45.65,62.32c0.85-1,1.71-2.03,2.59-3.07c-0.13-0.08-0.16-0.13-0.21-0.14
		c-2.48-0.46-4.95-0.93-7.45-1.36c-0.25-0.05-0.56,0.07-0.78,0.22c-1.72,1.18-3.43,2.37-5.13,3.58c-0.19,0.14-0.42,0.37-0.44,0.58
		c-0.09,0.84-0.1,1.68-0.15,2.6c1.65,0.06,3.22,0.14,4.78,0.15c0.17,0,0.39-0.28,0.51-0.48c0.62-1.04,1.22-2.09,1.81-3.15
		c0.23-0.41,0.48-0.55,0.94-0.36C43.26,61.39,44.4,61.83,45.65,62.32z M105.72,75.94c0.18-0.06,0.25-0.07,0.33-0.11
		c3.38-1.85,6.75-3.73,10.45-4.94c0.65-0.21,1.17-0.21,1.75-0.09c5.03,1.07,10.05,2.15,15.08,3.24c0.16,0.04,0.34,0.04,0.5,0.05
		c-0.2-0.23-0.43-0.35-0.67-0.4c-4.8-1.15-9.59-2.34-14.41-3.42c-3.69-0.83-7.42-1.52-11.25-1.26c-0.96,0.06-1.93,0.19-2.95,0.3
		C104.95,71.58,105.33,73.72,105.72,75.94z M49.67,101.61c0.23-0.02,0.38-0.03,0.53-0.05c5.08-0.36,10.16-0.95,15.25-1.05
		c6.44-0.11,12.88,0.2,19.33,0.3c6.11,0.09,12.22,0.15,18.33,0.22c1.59,0.02,3.18,0,4.77,0c0.19-0.59-0.05-0.74-0.59-0.75
		c-2.94-0.04-5.87-0.11-8.81-0.15c-5.67-0.09-11.34-0.22-17.01-0.26c-7.16-0.06-14.33-0.16-21.49-0.04
		c-3.44,0.05-6.86,0.59-10.32,0.92C49.67,101.08,49.67,101.3,49.67,101.61z M75.65,97.63c0.05-0.07,0.09-0.14,0.14-0.21
		c-1.2-1.46-2.38-2.93-3.6-4.36c-0.17-0.2-0.55-0.3-0.84-0.32c-1.17-0.06-2.35-0.06-3.53-0.1c-1.38-0.05-2.75-0.1-4.14-0.14
		c-0.53-0.01-1.17-0.16-1.55,0.08c-1.12,0.71-2.15,1.58-3.18,2.41c-0.96,0.76-1.9,1.55-2.85,2.33c-0.18,0.15-0.34,0.35-0.51,0.53
		c0.03,0.09,0.05,0.18,0.07,0.27C62.33,98.11,68.99,97.76,75.65,97.63z M103.76,86.55c0.14-0.25,0.28-0.48,0.4-0.73
		c1.21-2.38,2.36-4.8,3.65-7.15c1.94-3.51,0.98-2.66,4.91-4.5c1.71-0.8,3.48-1.25,5.38-1.12c2.31,0.17,4.63,0.35,6.94,0.53
		c1.07,0.08,2.15,0.15,3.21,0.24c0.01-0.09,0.03-0.17,0.04-0.26c-2.54-0.55-5.07-1.08-7.59-1.65c-2.41-0.55-4.74-0.55-6.95,0.7
		c-0.54,0.3-1.11,0.55-1.7,0.74c-2.12,0.7-3.48,2.12-4.54,4.09C105.95,80.34,104.65,83.34,103.76,86.55z M50.04,50.95
		c-6.58,1.41-12.08,4.65-17.23,8.8c0.3,0.24,0.54,0.42,0.58,0.45c2.76-1.72,5.37-3.43,8.06-4.98c2.72-1.57,5.69-2.57,8.78-3.29
		C50.17,51.59,50.12,51.34,50.04,50.95z M62.49,56.45c-1.26-0.34-2.31-0.67-3.38-0.89c-0.39-0.08-0.89-0.01-1.25,0.17
		c-1.59,0.77-3.15,1.61-4.73,2.44c-0.21,0.11-0.4,0.25-0.61,0.37c1.19,0.39,2.34,0.6,3.48,0.84c0.55,0.11,0.91,0.08,1.17-0.56
		c0.48-1.18,1.26-1.44,2.4-0.98c0.16,0.06,0.42,0.1,0.55,0.02C60.85,57.46,61.54,57.02,62.49,56.45z M42.07,56.65
		c0.03,0.09,0.06,0.18,0.09,0.27c2.19,0.38,4.39,0.77,6.59,1.16c0.39-1.52,0.76-2.94,1.13-4.36c-0.05-0.06-0.1-0.14-0.16-0.21
		C47.17,54.56,44.61,55.6,42.07,56.65z M62.6,65.8c0.1-0.03,0.19-0.05,0.29-0.07c0-1.72-0.02-3.44,0.01-5.15
		c0.03-1.43,0.04-1.45-1.23-0.75c-0.28,0.15-0.64,0.49-0.66,0.77c-0.09,1.25-0.09,2.52-0.07,3.77c0,0.24,0.15,0.55,0.34,0.68
		C61.68,65.35,62.16,65.56,62.6,65.8z M50.42,64.5c0.02-4.35,0.98-8.48,2.84-12.45c-0.44,0.25-0.81,0.55-1.02,0.95
		c-1.82,3.35-2.56,6.96-2.65,10.75C49.57,64.32,49.86,64.44,50.42,64.5z M42.29,92.99c0-0.25-0.1-0.64,0.02-0.92
		c0.75-1.76,0.02-3.13-1.12-4.38c-0.15-0.17-0.45-0.22-0.68-0.32c0.26,1.08,0.85,2.04,0.17,3.06c-0.5-0.03-0.98-0.05-1.46-0.09
		c-0.45-0.04-0.91-0.07-1.28-0.11C39.4,91.16,40.89,92.1,42.29,92.99z M108.99,68.11c-0.19-0.12-0.38-0.22-0.55-0.35
		c-1.66-1.33-3.34-2.65-4.99-4c-0.55-0.45-0.98-0.37-1.51,0.15c1.66,1.33,3.33,2.57,4.9,3.93C107.48,68.4,108.09,68.48,108.99,68.11
		z M24.94,66.15c0.05,0.09,0.09,0.18,0.14,0.27c0.47-0.13,1.05-0.12,1.4-0.39c1.9-1.49,3.74-3.05,5.65-4.64
		c-0.24-0.21-0.46-0.4-0.76-0.66C29.2,62.56,27.08,64.36,24.94,66.15z M119.89,94.17c-0.07-0.08-0.15-0.15-0.23-0.24
		c0.6-0.45,1.21-0.88,1.78-1.35c0.1-0.08,0.17-0.38,0.11-0.47c-0.39-0.56-0.18-1.12-0.05-1.7c0.23-1.05-0.15-1.36-1.21-1.06
		c-0.36,0.1-0.86,0.35-1.1,0.21c-0.84-0.54-0.95,0.2-1.28,0.62c0.25,0.01,0.48-0.07,0.72-0.12c1.34-0.29,2.16,0.49,1.78,1.72
		c-0.05,0.17-0.25,0.3-0.37,0.45c-0.15-0.13-0.35-0.24-0.41-0.39c-0.1-0.29-0.1-0.62-0.15-0.94c-0.65,0.53-0.06,1.05,0.04,1.55
		c0.02,0.09,0.48,0.1,0.9,0.17C120.24,93.13,120.07,93.65,119.89,94.17z M56.8,63.8c0-0.54,0-1,0-1.57
		c-1.23,0.66-2.36,1.28-3.52,1.91c0.5,0.63,0.94,1.2,1.42,1.74c0.16,0.18,0.5,0.41,0.65,0.35c0.2-0.08,0.31-0.41,0.41-0.65
		c0.06-0.16,0.04-0.35,0.03-0.54C55.79,64.31,55.79,63.61,56.8,63.8z M74.03,92.8c-0.35-0.4-0.61-0.77-0.95-1.08
		c-0.53-0.48-1.11-0.89-1.65-1.36c-1.3-1.15-2.57-2.34-3.89-3.47c-0.29-0.25-0.71-0.35-1.06-0.51
		C67.33,87.91,73.21,92.81,74.03,92.8z M48.07,95.89c0.25,0.65,0.61,0.73,1.14,0.56c1.08-0.33,2.17-0.63,3.26-0.9
		c0.81-0.2,1.64-0.34,2.53-0.52c-0.13-0.4-0.21-0.65-0.34-1.05C52.44,94.63,50.29,95.26,48.07,95.89z M51.41,71.58
		c-0.67-1.53-1.42-2.83-1.84-4.23c-0.65-2.21-2.67-2.31-4.25-3.1c0.53,0.39,1.13,0.69,1.69,1.04c0.42,0.25,0.96,0.45,1.16,0.84
		c0.79,1.48,1.47,3.03,2.25,4.68c-0.98-0.26-1.82-0.48-2.66-0.71c-0.01,0.05-0.03,0.08-0.04,0.13
		C48.9,70.65,50.07,71.08,51.41,71.58z M36.2,85.98c0.12,0,0.24,0.01,0.35,0.01c0.25,0.75,0.85,1.6,0.66,2.23
		c-0.17,0.59-1.16,0.95-1.82,1.42c0.62,0.1,1.33,0.22,2.08,0.34c0.11-0.81,0.58-1.02,1.33-0.75c0-0.9,0.08-1.72-0.97-2.05
		c-0.52-0.16-0.85-0.56-0.54-1.34c-0.55,0.05-0.98,0.07-1.41,0.14c-0.04,0.01-0.03,0.27-0.05,0.41c0.04,0.03,0.07,0.05,0.12,0.08
		C36.03,86.29,36.11,86.13,36.2,85.98z M19.75,91.57c-0.98,0.36-1.11,0.78-0.62,1.53c0.51,0.76,0.98,1.55,1.43,2.25
		c0.81-0.79,1.76-1.73,2.72-2.67c-0.43,0.06-0.8,0.22-1.12,0.44c-0.93,0.65-2,0.26-2.27-0.83C19.84,92.08,19.8,91.85,19.75,91.57z
		 M142.75,84.74c-0.05,0.07-0.12,0.15-0.17,0.23c0.85,0.66,1.68,1.34,2.55,1.97c0.48,0.35,0.5,0.69,0.12,1.07
		c-0.5,0.49-1.04,0.94-1.63,1.47c0.61-0.03,1.12-0.05,1.64-0.08c0.48-0.04,1.59-1.42,1.51-1.9c-0.02-0.11-0.13-0.22-0.23-0.28
		C145.27,86.39,144.01,85.56,142.75,84.74z M117.41,94.39c0.21,0.99,0.39,1.88,0.52,2.49c0.47-0.66,1.07-1.51,1.59-2.25
		c-0.29-0.58-0.58-1.15-0.85-1.73c-0.19-0.43-0.39-0.74-0.91-0.39c-0.12,0.07-0.3,0.05-0.48,0.07c0.27,0.65,0.53,1.25,0.82,1.94
		C117.76,94.46,117.59,94.42,117.41,94.39z M147.08,92.09c0.04,0.04,0.06,0.07,0.1,0.11c0.16-0.11,0.38-0.19,0.48-0.35
		c0.71-1.04,1.4-2.08,2.06-3.15c0.11-0.18,0.07-0.5,0.03-0.75c-0.25-1.2-2.31-2.73-3.75-2.76c0.62,0.33,1.19,0.62,1.75,0.94
		c1.76,0.98,1.92,1.62,0.86,3.37C148.09,90.36,147.59,91.22,147.08,92.09z M31.4,88.24c-0.9-1.12-2.51-1.67-3.55-1.26
		C29.42,89,30.15,89.15,31.4,88.24z M112.61,97.5c0-0.05,0.01-0.11,0.01-0.15c-2.29-0.28-4.58-0.56-6.86-0.86
		c-0.6-0.08-0.6,0.26-0.65,0.75c2.49,0.12,4.9,0.24,7.32,0.35C112.48,97.58,112.55,97.53,112.61,97.5z M50.95,105.56
		c0.3,0.42,0.49,0.89,0.84,1.1c0.19,0.11,0.73-0.15,0.95-0.4c0.18-0.19,0.17-0.6,0.18-0.92c0.01-0.19-0.11-0.39-0.16-0.59
		c-0.21-0.7-0.52-0.84-1.05-0.34C51.41,104.69,51.24,105.1,50.95,105.56z M122.71,81.22c-0.93-0.27-1.75,0.07-2.78,1.15
		c-0.49,0.52-0.96,1.05-0.67,1.85C120.41,83.22,121.54,82.24,122.71,81.22z M53.08,56.62c1.12-0.59,2.19-1.15,3.32-1.75
		C54.1,53.9,53.55,54.19,53.08,56.62z M123.88,82.86c-0.97-0.49-1.64,0.16-2.29,0.6c-1.08,0.73-1.44,1.53-1.21,2.3
		C121.5,84.83,122.65,83.89,123.88,82.86z M25.23,91.08c0.06-0.03,0.12-0.05,0.18-0.07c-0.06-0.19-0.07-0.52-0.19-0.56
		c-0.85-0.34-1.36-1.48-2.41-1.14c-0.18,0.48-0.25,0.91-0.49,1.2c-0.21,0.27-0.6,0.4-1.05,0.67c0.62,0,1.19,0.15,1.6-0.05
		c0.35-0.17,0.54-0.73,0.8-1.12c0.6,0.89,0.6,0.89,1.15,0.45C24.95,90.68,25.09,90.88,25.23,91.08z M51.83,62.09
		c1.13-0.64,2.08-1.17,3.2-1.8c-1.06-0.18-1.88-0.32-2.75-0.46C52.13,60.59,52,61.25,51.83,62.09z M44.78,87.41
		c-0.03,0.12-0.05,0.25-0.08,0.36c0.85,0.6,1.69,1.21,2.55,1.77c0.12,0.07,0.43,0.03,0.52-0.08c0.09-0.1,0.08-0.44-0.02-0.52
		c-0.65-0.56-1.32-1.12-2.05-1.59C45.5,87.23,45.1,87.39,44.78,87.41z M44.25,89.28c0.46,0.76,1.38,1.13,2.37,1.39
		c-0.05-0.25-0.13-0.47-0.28-0.61c-0.55-0.45-1.1-0.89-1.68-1.3c-0.15-0.1-0.37-0.1-0.56-0.13c-0.44-0.05-0.89-0.08-1.32-0.16
		c-0.21-0.05-0.4-0.2-0.6-0.3c-0.05,0.05-0.08,0.12-0.13,0.17c0.35,0.41,0.71,0.82,1.21,1.39c-0.05-0.34-0.05-0.45-0.06-0.53
		C43.5,89.23,43.8,89.25,44.25,89.28z M46.5,97.98c1.25-0.78,1.42-3.17,0.43-4.04C46.78,95.34,46.64,96.66,46.5,97.98z M24.96,91.45
		c-0.01-0.04-0.02-0.08-0.03-0.12c-0.11-0.02-0.23-0.05-0.34-0.04c-1.25,0.2-2.5,0.39-3.75,0.62c-0.19,0.04-0.48,0.2-0.5,0.34
		c-0.04,0.25,0.1,0.52,0.14,0.67C22.08,92.39,23.51,91.92,24.96,91.45z M125.17,84.65c-1.23-0.62-2.85,0.16-3.12,1.3
		C123.49,86.55,123.95,84.98,125.17,84.65z M46.05,86.18c0.9,0.77,1.74,1.48,2.57,2.19c0.08-0.04,0.16-0.07,0.25-0.11
		c0-0.29,0.11-0.65-0.02-0.85C48.22,86.4,47.05,85.9,46.05,86.18z M94.23,66.97c-0.58,0.77-1.12,1.48-1.69,2.25
		c0.55,0.15,0.95,0.25,1.31,0.35c0.32-0.69,0.62-1.34,0.93-2.01C94.63,67.4,94.48,67.23,94.23,66.97z M53.49,50.6
		c-0.79,0.07-1.47,0.14-2.21,0.2c0.02,0.36,0.03,0.68,0.05,1.08c0.8-0.07,1.53-0.14,2.3-0.2C53.57,51.28,53.53,50.98,53.49,50.6z
		 M118.23,82.51c1.07-0.86,2.07-1.68,3.06-2.48C120.19,79.54,118.45,80.9,118.23,82.51z M32.84,62.87
		c-0.75,0.58-1.43,1.09-2.26,1.74c0.88,0,1.55,0,2.26,0C32.84,64.03,32.84,63.51,32.84,62.87z M46.89,63.16
		c0.49,0.18,0.85,0.32,1.26,0.47c0.12-0.86,0.23-1.62,0.33-2.36c-0.05-0.02-0.09-0.05-0.13-0.06
		C47.88,61.83,47.41,62.45,46.89,63.16z M25.67,89.83c0.21-0.16,0.47-0.36,0.76-0.59c-0.83-0.67-1.73-0.87-2.18-0.55
		C24.68,89.04,25.11,89.39,25.67,89.83z M125.23,86.1c-0.04-0.01-0.06-0.02-0.1-0.03c0.13,0.86,0.25,1.73,0.4,2.65
		c0.15-0.11,0.23-0.16,0.3-0.23c0.5-0.44,0.84-0.83,0.01-1.34C125.54,86.97,125.43,86.46,125.23,86.1z M18.88,96.45
		c-0.02,0.11-0.04,0.22-0.05,0.32c0.26-0.35,0.53-0.7,0.88-1.17c-0.77-0.05-1.42-0.09-2.06-0.13c0.09-0.05,0.18-0.09,0.27-0.15
		C18.24,95.7,18.56,96.08,18.88,96.45z M47.6,109.14c0.37,0.6,0.69,1.13,1.01,1.65c0.09-0.03,0.17-0.06,0.26-0.09
		c-0.15-0.65-0.32-1.29-0.49-2.04C48.02,108.88,47.83,108.99,47.6,109.14z M132.91,85.41c1.24,0.55,1.33,1.38,1.04,2.48
		c0.49-0.11,0.85-0.18,1.06-0.23c-0.25-0.43-0.56-0.76-0.66-1.15C134.18,85.85,133.8,85.52,132.91,85.41z M16.73,97.77
		c0.65-0.16,1.17-0.3,1.75-0.45C17.53,96.29,17.24,96.35,16.73,97.77z M35.29,88.83c0.55-0.25,0.96-0.45,1.43-0.67
		c-0.31-0.46-0.56-0.85-0.79-1.18C35.73,87.52,35.54,88.09,35.29,88.83z M40.1,89.87c-0.14-0.88-0.25-1.6-0.35-2.31
		C39.19,88.49,39.33,89.34,40.1,89.87z M114.93,93.53c-0.15,0.25-0.36,0.65-0.59,1.05c0.05,0.1,0.1,0.19,0.15,0.29
		c0.52-1.15,1.23-0.8,1.96-0.51c0.12,0.05,0.36-0.2,0.6-0.34C116.31,93.85,115.69,93.7,114.93,93.53z M45.73,91.59
		c-0.4-0.6-0.77-1.16-1.15-1.73C44.56,91.23,44.92,91.72,45.73,91.59z M31.66,87.77c0.09-0.03,0.17-0.05,0.26-0.09
		c-0.02-0.26,0.05-0.66-0.09-0.77c-0.33-0.25-0.76-0.34-1.15-0.5c-0.04,0.07-0.06,0.15-0.1,0.22C30.95,87,31.3,87.39,31.66,87.77z
		 M19.86,95.52c0.08-0.13,0.16-0.25,0.25-0.37c-0.55-0.35-1.1-0.7-1.65-1.05c-0.07,0.11-0.15,0.22-0.22,0.33
		C18.78,94.79,19.31,95.15,19.86,95.52z M117.39,97.04c-0.06-0.8-0.08-1.38-0.17-1.95c-0.02-0.14-0.25-0.24-0.39-0.35
		c-0.08,0.16-0.26,0.36-0.22,0.48C116.79,95.77,117.05,96.29,117.39,97.04z M18.66,98.09c-0.05-0.08-0.1-0.15-0.15-0.24
		c-0.73,0.49-1.45,0.99-2.19,1.48c0.04,0.05,0.07,0.11,0.11,0.16C17.18,99.04,17.91,98.57,18.66,98.09z M43.79,92.5
		c0.15-0.03,0.28-0.05,0.43-0.09c-0.15-0.55-0.31-1.12-0.45-1.67c-0.05,0.01-0.09,0.03-0.14,0.04
		C43.68,91.35,43.73,91.93,43.79,92.5z M53.91,105.24c0.67-0.85-0.04-1.12-0.4-1.5C53.63,104.19,53.75,104.62,53.91,105.24z"/>
	<path class="st1" d="M140.7,82.5c-0.91-0.42-1.83-0.82-2.72-1.25c-0.36-0.18-0.78-0.38-0.99-0.7c-1.13-1.75-2.2-3.52-3.18-5.4
		c2.09,0.96,4.18,1.93,6.26,2.9c-0.03,0.06-0.05,0.13-0.08,0.2c-0.7-0.29-1.38-0.64-2.11-0.85c-0.7-0.21-1.44-0.29-2.22-0.33
		c0.59,1.74,0.96,3.52,2.95,4.23c0.84,0.3,1.61,0.78,2.41,1.17C140.93,82.47,140.82,82.48,140.7,82.5z"/>
	<path class="st1" d="M66.6,74.45c-1.32-0.13-2.64-0.25-3.95-0.37c-1.48-0.15-2.96-0.31-4.45-0.43c-0.65-0.05-1.18-0.24-1.6-0.76
		c-0.59-0.75-1.24-1.45-1.82-2.2c-0.22-0.28-0.31-0.66-0.45-1c0.05-0.07,0.1-0.14,0.15-0.21c0.95,0.18,1.89,0.35,2.83,0.55
		C61.7,71,62.98,71.6,66.6,74.45z"/>
	<path class="st1" d="M57.27,74.38c0.3-0.02,0.61-0.1,0.91-0.05c9.49,1.45,18.91,3.33,28.23,5.65c2.97,0.74,5.95,1.46,8.91,2.19
		c0.15,0.04,0.28,0.1,0.41,0.19C82.8,80.11,70,77.33,57.25,74.36C57.25,74.37,57.27,74.38,57.27,74.38z"/>
	<path class="st1" d="M101.66,78.2c-0.11,0.4-0.19,0.71-0.3,1.13c-1.68-1.05-3.3-2.07-4.92-3.09c0.02-0.05,0.04-0.08,0.05-0.13
		C98.19,76.8,99.88,77.48,101.66,78.2z"/>
	<path class="st1" d="M100.59,81.23c-1.19-1.05-2.38-2.11-3.56-3.16c0.02-0.04,0.04-0.07,0.05-0.11c0.86,0.45,1.74,0.9,2.6,1.35
		c0.18,0.09,0.36,0.19,0.55,0.29C101.23,80.14,101.23,80.14,100.59,81.23z"/>
	<path class="st1" d="M137.41,104.32c-0.61-0.38-1.17-0.74-1.73-1.1c-0.56-0.37-0.69-0.87-0.39-1.47c0.35-0.71,0.72-1.41,1.12-2.18
		c-2.11,1.04-3.38,2.69-1.98,4.56c-0.8,0.52-2,0.68-1.95,1.85c-0.91-0.11-1.81-0.23-2.84-0.35c0.24,0.4,0.37,0.65,0.55,0.95
		c0.52-0.38,0.95-0.13,1.3,0.35c0.52,0.7,1.02,1.42,1.53,2.13c-1.69,0.89-4.31,0.39-6.24-1.15c0.44,0.04,0.88,0.07,1.4,0.12
		c0-0.57,0-1.07,0-1.63c-0.4,0-0.75,0-1.33,0c0.75-0.55,1.33-0.96,1.89-1.36c-0.03-0.11-0.02-0.18-0.05-0.2
		c-1.02-0.58-1.02-0.57-0.55-1.66c0.37-0.86,0.14-1.29-0.83-1.45c-0.58-0.09-1.17-0.15-1.75-0.24c-0.26-0.05-0.51-0.16-0.89-0.28
		c0.67-0.97,1.27-1.83,1.86-2.68c0.15,0.15,0.29,0.29,0.44,0.44c0.01-0.03,0.02-0.05,0.02-0.07c-0.36-1.31-0.31-1.43,1-1.98
		c0.28-0.12,0.55-0.25,0.94-0.41c0.38,1.35,0.36,2.67-0.09,4.09c0.25-0.11,0.4-0.15,0.54-0.25c1.28-0.87,1.94-0.87,3.26-0.01
		c0.32,0.21,0.67,0.41,1.04,0.48c0.16,0.04,0.53-0.23,0.56-0.39c0.15-0.86,0.91-1.41,1.77-1.17c0.25,0.06,0.49,0.18,0.68,0.35
		C137.62,100.38,138.07,103.14,137.41,104.32z"/>
	<path class="st1" d="M129.88,96.51c1.75-0.6,4.21,0.14,5.36,1.47c-0.57,0.99-2.16,1.69-3.19,1.38c-0.42-0.13-1.03-0.18-1.21-0.48
		C130.42,98.17,130.19,97.32,129.88,96.51z"/>
	<path class="st1" d="M134.27,108.69c-0.17-0.7-0.35-1.31-0.46-1.93c-0.16-0.87,0.26-1.48,1.15-1.52c0.67-0.03,1.35,0.11,2.2,0.18
		C136.62,107.04,135.49,107.83,134.27,108.69z"/>
	<path class="st1" d="M126.3,105.32c-0.17-1.02-0.31-1.76-0.45-2.56c0.7,0.08,1.54,0.22,1.57,0.85
		C127.47,104.09,126.79,104.62,126.3,105.32z"/>
	<path class="st1" d="M127.69,96.6c-0.23-0.32-0.45-0.52-0.47-0.74c-0.02-0.12,0.35-0.42,0.48-0.38c0.21,0.05,0.46,0.28,0.53,0.48
		C128.25,96.09,127.95,96.3,127.69,96.6z"/>
	<path class="st1" d="M124.49,99.86c-0.27,0.23-0.52,0.53-0.61,0.49c-0.21-0.09-0.43-0.34-0.47-0.55c-0.03-0.11,0.3-0.42,0.47-0.43
		C124.05,99.37,124.22,99.63,124.49,99.86z"/>
	<path class="st1" d="M139.22,104.61c-0.32,0.24-0.5,0.49-0.67,0.48c-0.18-0.01-0.35-0.27-0.52-0.42c0.16-0.17,0.3-0.45,0.48-0.48
		C138.68,104.17,138.89,104.4,139.22,104.61z"/>
	<path class="st1" d="M133.66,95.59c-0.27,0.21-0.45,0.45-0.59,0.43c-0.2-0.03-0.37-0.25-0.56-0.39c0.16-0.17,0.31-0.45,0.49-0.49
		C133.16,95.11,133.37,95.38,133.66,95.59z"/>
	<path class="st1" d="M139.29,101.65c-0.31,0.22-0.5,0.46-0.68,0.45c-0.16-0.02-0.44-0.32-0.43-0.47c0.02-0.17,0.29-0.44,0.46-0.45
		C138.82,101.17,139.01,101.43,139.29,101.65z"/>
	<path class="st1" d="M127.26,110.19c-0.22-0.29-0.46-0.49-0.44-0.6c0.05-0.19,0.28-0.4,0.47-0.45c0.1-0.03,0.42,0.26,0.41,0.39
		C127.69,109.72,127.48,109.89,127.26,110.19z"/>
	<path class="st1" d="M138.05,107.31c-0.35,0.19-0.55,0.39-0.72,0.37c-0.15-0.01-0.29-0.26-0.44-0.41c0.16-0.16,0.31-0.43,0.49-0.45
		C137.53,106.8,137.72,107.07,138.05,107.31z"/>
	<path class="st1" d="M126.22,97.47c-0.33,0.23-0.51,0.44-0.7,0.45c-0.14,0.01-0.39-0.26-0.4-0.41c0-0.16,0.24-0.45,0.36-0.45
		C125.69,97.06,125.88,97.27,126.22,97.47z"/>
	<path class="st1" d="M125.74,107.87c-0.38,0.18-0.61,0.32-0.85,0.37c-0.05,0.01-0.28-0.38-0.24-0.45c0.14-0.17,0.35-0.34,0.56-0.39
		C125.32,107.39,125.48,107.63,125.74,107.87z"/>
	<path class="st1" d="M135.28,108.64c0.22,0.27,0.45,0.44,0.48,0.64c0.03,0.14-0.21,0.33-0.33,0.49c-0.19-0.16-0.44-0.31-0.55-0.52
		C134.83,109.16,135.08,108.92,135.28,108.64z"/>
	<path class="st1" d="M138.3,98.67c-0.35,0.2-0.55,0.41-0.75,0.4c-0.15-0.01-0.38-0.29-0.37-0.45c0-0.15,0.27-0.41,0.41-0.4
		C137.78,98.23,137.97,98.44,138.3,98.67z"/>
	<path class="st1" d="M135.51,97.43c-0.2-0.38-0.39-0.6-0.36-0.77c0.03-0.17,0.28-0.31,0.44-0.46c0.14,0.17,0.36,0.35,0.37,0.53
		C135.97,96.89,135.74,97.08,135.51,97.43z"/>
	<path class="st1" d="M130.27,95.93c-0.22-0.34-0.4-0.51-0.44-0.71c-0.02-0.11,0.21-0.26,0.33-0.4c0.15,0.16,0.36,0.31,0.45,0.5
		C130.64,95.42,130.45,95.62,130.27,95.93z"/>
	<path class="st1" d="M124.32,105.55c-0.34,0.18-0.54,0.35-0.75,0.37c-0.11,0.01-0.24-0.25-0.36-0.38c0.18-0.15,0.34-0.35,0.55-0.41
		C123.87,105.1,124.04,105.34,124.32,105.55z"/>
	<path class="st1" d="M130.56,110.42c-0.29,0.25-0.45,0.47-0.61,0.49c-0.15,0.01-0.34-0.2-0.5-0.31c0.14-0.15,0.25-0.39,0.41-0.44
		C130,110.12,130.21,110.29,130.56,110.42z"/>
	<path class="st1" d="M35.28,100.42c-1.35-0.76-2.27-1.76-2.05-3.41c0.9-0.27,0.9-0.27,1.45,1.4c0.54-0.26,1.06-0.57,1.62-0.75
		c0.13-0.05,0.39,0.35,0.63,0.57c-0.47,0.42-0.93,0.79-1.35,1.2c-0.12,0.12-0.13,0.35-0.18,0.52c0.19,0.05,0.42,0.17,0.55,0.11
		c0.62-0.29,1.22-0.64,1.88-0.99c0.15,0.2,0.34,0.45,0.59,0.8c-1.84,1.02-3.92,1.91-2.25,4.54c-0.43,0.27-0.8,0.5-1.25,0.78
		c1.14,0.35,2.14,0.65,3.14,0.96c0.02,0.1,0.05,0.2,0.06,0.3c-0.49,0.45-0.93,1.15-1.5,1.3c-0.58,0.15-1.31-0.25-2.14-0.45
		c0.16,0.62,0.27,1.05,0.42,1.58c-0.52,0.12-0.99,0.24-1.68,0.4c0.56-1.34,0.2-2.82,1.58-3.74c-0.9-0.23-1.45,0.19-1.86,0.65
		c-0.5-0.37-0.97-0.73-1.44-1.08c-0.05,0.06-0.09,0.12-0.14,0.18c0.96,1.17,0.62,2.55,0.71,3.87c-2.15,0.03-4.35-1.43-5.16-3.44
		c1.11-0.28,2.21-0.56,3.45-0.87c-0.35-0.29-0.61-0.5-0.93-0.75c0.15-0.19,0.29-0.35,0.43-0.53c0.71-0.91,0.55-1.51-0.55-1.95
		c-0.65-0.25-1.32-0.45-1.96-0.7c-0.19-0.07-0.34-0.25-0.5-0.38c0.17-0.12,0.34-0.28,0.54-0.35c0.91-0.28,1.79-0.32,2.68,0.19
		c0.28,0.16,0.88,0.13,1.14-0.07c1.14-0.9,2.19-0.41,3.28,0.03c0.21,0.08,0.41,0.17,0.62,0.26
		C35.18,100.54,35.23,100.49,35.28,100.42z"/>
	<path class="st1" d="M27.89,98.98c1.1-1.17,2.35-2.02,4-2.15c0.32,1.51-0.04,2.39-1.16,3.05C30.24,100.19,28.62,99.69,27.89,98.98z
		"/>
	<path class="st1" d="M38.8,100.87c0.55,1.52,0.43,2.77-0.11,4.15c-0.54-0.43-1.02-0.76-1.45-1.15c-0.45-0.41-0.34-0.92-0.02-1.33
		C37.68,101.99,38.2,101.51,38.8,100.87z"/>
	<path class="st1" d="M29.32,103.66c-0.8,0.49-1.5,0.94-2.22,1.34c-0.12,0.06-0.34-0.07-0.51-0.12c0.05-0.17,0.05-0.4,0.16-0.52
		c0.3-0.31,0.67-0.55,0.96-0.87C28.35,102.82,28.41,102.81,29.32,103.66z"/>
	<path class="st1" d="M25.24,102.53c0.22,0.29,0.47,0.49,0.45,0.66c-0.02,0.17-0.35,0.48-0.46,0.45c-0.21-0.05-0.45-0.3-0.51-0.51
		C24.7,103,25,102.79,25.24,102.53z"/>
	<path class="st1" d="M39.6,104.68c0.25,0.33,0.46,0.5,0.52,0.72c0.03,0.11-0.3,0.44-0.39,0.41c-0.23-0.06-0.47-0.25-0.59-0.45
		C39.09,105.28,39.37,105.01,39.6,104.68z"/>
	<path class="st1" d="M36.29,96.19c-0.32,0.25-0.52,0.54-0.66,0.51c-0.22-0.04-0.4-0.28-0.6-0.45c0.15-0.17,0.3-0.47,0.46-0.48
		C35.7,95.76,35.91,95.98,36.29,96.19z"/>
	<path class="st1" d="M27.46,98.59c-0.21-0.34-0.45-0.55-0.42-0.72c0.03-0.19,0.3-0.35,0.46-0.51c0.15,0.17,0.4,0.35,0.41,0.53
		C27.92,98.07,27.69,98.26,27.46,98.59z"/>
	<path class="st1" d="M33.48,95.74c-0.39,0.27-0.59,0.52-0.8,0.52c-0.16,0.01-0.33-0.29-0.5-0.45c0.16-0.15,0.31-0.4,0.5-0.44
		C32.86,95.34,33.08,95.54,33.48,95.74z"/>
	<path class="st1" d="M29.98,95.55c0.21,0.31,0.45,0.51,0.43,0.68c-0.02,0.17-0.29,0.32-0.45,0.48c-0.16-0.18-0.43-0.34-0.46-0.55
		C29.46,96.03,29.74,95.83,29.98,95.55z"/>
	<path class="st1" d="M28,108.25c-0.29,0.22-0.48,0.47-0.66,0.46c-0.16,0-0.46-0.32-0.45-0.46c0.02-0.18,0.29-0.45,0.47-0.46
		C27.52,107.77,27.72,108.04,28,108.25z"/>
	<path class="st1" d="M29.77,110.52c-0.24-0.31-0.45-0.48-0.52-0.71c-0.03-0.09,0.33-0.42,0.4-0.39c0.22,0.09,0.44,0.29,0.55,0.5
		C30.24,109.99,29.98,110.24,29.77,110.52z"/>
	<path class="st1" d="M38.45,97.79c-0.27,0.2-0.49,0.46-0.6,0.42c-0.19-0.07-0.4-0.31-0.43-0.5c-0.02-0.13,0.28-0.44,0.41-0.42
		C38.03,97.32,38.19,97.56,38.45,97.79z"/>
	<path class="st1" d="M38.73,107.93c-0.35,0.2-0.55,0.41-0.74,0.39c-0.15-0.01-0.3-0.27-0.45-0.42c0.16-0.16,0.32-0.45,0.51-0.47
		C38.21,107.41,38.41,107.68,38.73,107.93z"/>
	<path class="st1" d="M39.9,101.74c0.25,0.31,0.48,0.47,0.5,0.66c0.02,0.15-0.23,0.33-0.36,0.49c-0.17-0.15-0.42-0.29-0.48-0.49
		C39.52,102.28,39.73,102.06,39.9,101.74z"/>
	<path class="st1" d="M26.43,100.34c-0.32,0.23-0.5,0.45-0.69,0.46c-0.15,0.01-0.29-0.27-0.45-0.43c0.16-0.15,0.3-0.4,0.49-0.44
		C25.93,99.9,26.12,100.14,26.43,100.34z"/>
	<path class="st1" d="M36.03,109.86c-0.31,0.2-0.5,0.42-0.68,0.41c-0.15-0.01-0.28-0.28-0.43-0.44c0.17-0.15,0.32-0.37,0.51-0.41
		C35.57,109.39,35.75,109.63,36.03,109.86z"/>
	<path class="st1" d="M25.71,106.68c-0.18-0.29-0.41-0.52-0.36-0.6c0.1-0.19,0.32-0.35,0.53-0.42c0.07-0.03,0.38,0.3,0.35,0.41
		C26.18,106.25,25.96,106.4,25.71,106.68z"/>
	<path class="st1" d="M33.26,110.52c-0.28,0.18-0.47,0.4-0.63,0.38c-0.15-0.02-0.37-0.29-0.37-0.45c0.01-0.15,0.26-0.39,0.41-0.4
		C32.84,110.07,33,110.3,33.26,110.52z"/>
	<path class="st1" d="M101.59,97.34c-2.86,0-5.69,0.04-8.53-0.01c-4.66-0.07-9.33-0.21-13.99-0.27c-0.71-0.01-0.99-0.52-1.34-0.91
		c-0.57-0.64-1.03-1.38-1.66-2.26c0.74,0.07,1.3,0.15,1.86,0.18c2.28,0.12,4.56,0.22,6.84,0.34c4.81,0.25,9.62,0.51,14.43,0.82
		c0.45,0.03,0.95,0.36,1.29,0.69C100.95,96.33,101.25,96.89,101.59,97.34z"/>
	<path class="st1" d="M139.54,91.66c0.05-0.19,0.06-0.53,0.15-0.55c0.61-0.14,1.24-0.2,1.95-0.31c-0.35,0.97,0.51,0.85,0.86,1.16
		c-0.51,0.65-1.06,0.72-1.78,0.27c-0.38-0.24-0.81-0.41-1.22-0.61C139.52,91.63,139.54,91.66,139.54,91.66z"/>
	<path class="st1" d="M129.95,85.1c0.15-0.08,0.32-0.16,0.47-0.25c0.02,0.19,0.11,0.42,0.04,0.55c-0.14,0.25-0.37,0.45-0.56,0.67
		c-0.09-0.05-0.18-0.09-0.27-0.13c0.12-0.29,0.24-0.58,0.35-0.87C129.98,85.07,129.95,85.1,129.95,85.1z"/>
	<path class="st1" d="M147,95.75c0.41,0.84,0.34,0.96-0.67,1.33C146.58,96.57,146.76,96.24,147,95.75z"/>
	<path class="st1" d="M106.95,74.39c2.16-1.99,4.84-2.99,7.49-4.04C112.01,71.83,109.72,73.57,106.95,74.39z"/>
	<path class="st1" d="M74.57,96.99c-1.97,0-3.74,0.01-5.5,0c-1.73-0.02-3.45-0.11-5.16-0.07c-0.75,0.02-0.99-0.3-1.05-0.95
		c-0.09-0.85-0.22-1.71-0.34-2.65c0.34,0.05,0.72,0.14,1.1,0.15c0.79,0,1.57-0.09,2.36-0.05c1.67,0.06,3.35,0.19,5.02,0.3
		c0.2,0.01,0.45,0.04,0.57,0.15C72.53,94.83,73.49,95.85,74.57,96.99z"/>
</g>
</svg>
